STARTFONT 2.1
FONT -HP-Sung-Medium-R-Normal--50-500-75-75-C-250-ISO646.1991-IRV
SIZE 50 75 75
FONTBOUNDINGBOX 25 50 0 -6

STARTPROPERTIES 23
FONTNAME_REGISTRY ""
FOUNDRY "HP"
FAMILY_NAME "Sung"
WEIGHT_NAME "Medium"
SLANT "R"
SETWIDTH_NAME "Normal"
ADD_STYLE_NAME ""
PIXEL_SIZE 50
POINT_SIZE 500
RESOLUTION_X 75
RESOLUTION_Y 75
SPACING "C"
AVERAGE_WIDTH 250
CHARSET_REGISTRY "ISO646.1991"
CHARSET_ENCODING "IRV"
COPYRIGHT "Copyright (c) 1994 Hewlett-Packard Company."
_HP_ASXVERSION "@(#) ASX 3.00 $Revision: 13.9 $ sung50a"
WEIGHT 10
X_HEIGHT 44
QUAD_WIDTH 25
DEFAULT_CHAR 32
FONT_DESCENT 6
FONT_ASCENT 44
ENDPROPERTIES

CHARS 256

STARTCHAR iso0
ENCODING 0
SWIDTH 480 0
DWIDTH 25 0
BBX 25 50 0 -6
BITMAP
00000000
00000000
00000000
00000000
00000000
18060000
18060000
18060000
1C060000
1E060000
1F060000
1B860000
19C60000
18E60000
18760000
183E0000
181E0000
180E0000
18060000
18060000
18060000
18060000
18060000
00000000
00000000
00180600
00180600
00180600
00180600
00180600
00180600
00180600
00180600
00180600
00180600
00180600
00180600
00180600
00180600
00180600
001C0E00
000FFC00
0007F800
00000000
00000000
00000000
00000000
00000000
00000000
00000000
ENDCHAR

STARTCHAR iso1
ENCODING 1
SWIDTH 480 0
DWIDTH 25 0
BBX 25 50 0 -6
BITMAP
00000000
00000000
00000000
00000000
00000000
07F80000
0FFC0000
1C0E0000
18060000
18000000
18000000
18000000
1C000000
0FF80000
07FC0000
00060000
00060000
00060000
00060000
18060000
1C0E0000
0FFC0000
07F80000
00000000
00000000
00180600
00180600
00180600
00180600
00180600
00180600
00180600
00180600
001FFE00
001FFE00
00180600
00180600
00180600
00180600
00180600
00180600
00180600
00180600
00000000
00000000
00000000
00000000
00000000
00000000
00000000
ENDCHAR

STARTCHAR iso2
ENCODING 2
SWIDTH 480 0
DWIDTH 25 0
BBX 25 50 0 -6
BITMAP
00000000
00000000
00000000
00000000
00000000
07F80000
0FFC0000
1C0E0000
18060000
18000000
18000000
18000000
1C000000
0FF80000
07FC0000
000E0000
00060000
00060000
00060000
18060000
1C0E0000
0FFC0000
07F80000
00000000
00000000
00380700
00380700
00180600
001C0E00
000E1C00
00073800
0003F000
0001E000
0001E000
0001E000
0001E000
0003F000
00073800
000E1C00
001C0E00
00380700
00300300
00300300
00000000
00000000
00000000
00000000
00000000
00000000
00000000
ENDCHAR

STARTCHAR iso3
ENCODING 3
SWIDTH 480 0
DWIDTH 25 0
BBX 25 50 0 -6
BITMAP
00000000
00000000
00000000
00000000
00000000
1FFE0000
1FFE0000
18000000
18000000
18000000
18000000
18000000
18000000
1FF80000
1FF80000
18000000
18000000
18000000
18000000
18000000
18000000
1FFE0000
1FFE0000
00000000
00000000
00180600
00180600
00180600
001C0E00
000E1C00
00073800
0003F000
0001E000
0001E000
0001E000
0001E000
0003F000
00073800
000E1C00
001C0E00
00180600
00180600
00180600
00000000
00000000
00000000
00000000
00000000
00000000
00000000
ENDCHAR

STARTCHAR iso4
ENCODING 4
SWIDTH 480 0
DWIDTH 25 0
BBX 25 50 0 -6
BITMAP
00000000
00000000
00000000
00000000
00000000
1FFE0000
1FFE0000
18000000
18000000
18000000
18000000
18000000
18000000
1FF80000
1FF80000
18000000
18000000
18000000
18000000
18000000
18000000
1FFE0000
1FFE0000
00000000
00000000
007FFE00
007FFE00
00018000
00018000
00018000
00018000
00018000
00018000
00018000
00018000
00018000
00018000
00018000
00018000
00018000
00018000
00018000
00018000
00000000
00000000
00000000
00000000
00000000
00000000
00000000
ENDCHAR

STARTCHAR iso5
ENCODING 5
SWIDTH 480 0
DWIDTH 25 0
BBX 25 50 0 -6
BITMAP
00000000
00000000
00000000
00000000
00000000
1FFE0000
1FFE0000
18000000
18000000
18000000
18000000
18000000
18000000
1FF80000
1FF80000
18000000
18000000
18000000
18000000
18000000
18000000
1FFE0000
1FFE0000
00000000
00000000
001FE000
003FF000
00703800
00601800
00601800
00601800
00601800
00601800
00601800
00601800
00661800
00671800
00639800
0061D800
0060F800
00707800
003FFE00
001FE600
00000000
00000000
00000000
00000000
00000000
00000000
00000000
ENDCHAR

STARTCHAR iso6
ENCODING 6
SWIDTH 480 0
DWIDTH 25 0
BBX 25 50 0 -6
BITMAP
00000000
00000000
00000000
00000000
00000000
01E00000
01E00000
03300000
03300000
06180000
06180000
0C0C0000
0C0C0000
18060000
18060000
1FFE0000
1FFE0000
18060000
18060000
18060000
18060000
18060000
18060000
00000000
00000000
00180600
00180E00
00181C00
00183800
00187000
0018E000
0019C000
001B8000
001F0000
001F0000
001B8000
0019C000
0018E000
00187000
00183800
00181C00
00180E00
00180600
00000000
00000000
00000000
00000000
00000000
00000000
00000000
ENDCHAR

STARTCHAR iso7
ENCODING 7
SWIDTH 480 0
DWIDTH 25 0
BBX 25 50 0 -6
BITMAP
00000000
00000000
00000000
00000000
00000000
00000000
00000000
001E0000
003F0000
00618000
00618000
00E1C000
00E1C000
01C0E000
01C0E000
01806000
01806000
01806000
01806000
01806000
03807000
03807000
03003000
07003800
07003800
06001800
0E001C00
0E001C00
0C000C00
1C000E00
18000600
18000600
18000600
1FFFFE00
1FFFFE00
001E0000
001E0000
00618000
00618000
00618000
00618000
001E0000
001E0000
00000000
00000000
00000000
00000000
00000000
00000000
00000000
ENDCHAR

STARTCHAR iso8
ENCODING 8
SWIDTH 480 0
DWIDTH 25 0
BBX 25 50 0 -6
BITMAP
00000000
00000000
00000000
00000000
00000000
1FF80000
1FFC0000
060E0000
06060000
06060000
06060000
06060000
06060000
07FC0000
07FC0000
06060000
06060000
06060000
06060000
06060000
060E0000
1FFC0000
1FF80000
00000000
00000000
0007F800
000FFC00
001C0E00
00180600
00180000
00180000
00180000
001C0000
000FF800
0007FC00
00000E00
00000600
00000600
00000600
00180600
001C0E00
000FFC00
0007F800
00000000
00000000
00000000
00000000
00000000
00000000
00000000
ENDCHAR

STARTCHAR iso9
ENCODING 9
SWIDTH 480 0
DWIDTH 25 0
BBX 25 50 0 -6
BITMAP
00000000
00000000
00000000
00000000
00000000
18060000
18060000
18060000
18060000
18060000
18060000
18060000
18060000
1FFE0000
1FFE0000
18060000
18060000
18060000
18060000
18060000
18060000
18060000
18060000
00000000
00000000
007FFE00
007FFE00
00018000
00018000
00018000
00018000
00018000
00018000
00018000
00018000
00018000
00018000
00018000
00018000
00018000
00018000
00018000
00018000
00000000
00000000
00000000
00000000
00000000
00000000
00000000
ENDCHAR

STARTCHAR isoA
ENCODING 10
SWIDTH 480 0
DWIDTH 25 0
BBX 25 50 0 -6
BITMAP
00000000
00000000
00000000
00000000
00000000
18000000
18000000
18000000
18000000
18000000
18000000
18000000
18000000
18000000
18000000
18000000
18000000
18000000
18000000
18000000
18000000
1FFE0000
1FFE0000
00000000
00000000
001FFE00
001FFE00
00180000
00180000
00180000
00180000
00180000
00180000
001FF800
001FF800
00180000
00180000
00180000
00180000
00180000
00180000
00180000
00180000
00000000
00000000
00000000
00000000
00000000
00000000
00000000
ENDCHAR

STARTCHAR isoB
ENCODING 11
SWIDTH 480 0
DWIDTH 25 0
BBX 25 50 0 -6
BITMAP
00000000
00000000
00000000
00000000
00000000
18060000
18060000
18060000
18060000
18060000
18060000
18060000
18060000
0C0C0000
0C0C0000
0E1C0000
0E1C0000
06180000
07380000
03F00000
01E00000
01E00000
00C00000
00000000
00000000
007FFE00
007FFE00
00018000
00018000
00018000
00018000
00018000
00018000
00018000
00018000
00018000
00018000
00018000
00018000
00018000
00018000
00018000
00018000
00000000
00000000
00000000
00000000
00000000
00000000
00000000
ENDCHAR

STARTCHAR isoC
ENCODING 12
SWIDTH 480 0
DWIDTH 25 0
BBX 25 50 0 -6
BITMAP
00000000
00000000
00000000
00000000
00000000
1FFE0000
1FFE0000
18000000
18000000
18000000
18000000
18000000
18000000
1FF80000
1FF80000
18000000
18000000
18000000
18000000
18000000
18000000
18000000
18000000
00000000
00000000
007FF800
007FF800
00600000
00600000
00600000
00600000
00600000
00600000
007FE000
007FE000
00600000
00600000
00600000
00600000
00600000
00600000
00600000
00600000
00000000
00000000
00000000
00000000
00000000
00000000
00000000
ENDCHAR

STARTCHAR isoD
ENCODING 13
SWIDTH 480 0
DWIDTH 25 0
BBX 25 50 0 -6
BITMAP
00000000
00000000
00000000
00000000
00000000
07F80000
0FFC0000
1C0E0000
18060000
18060000
18060000
18000000
18000000
18000000
18000000
18000000
18000000
18000000
18000000
18060000
1C0E0000
0FFC0000
07F80000
00000000
00000000
001FF800
001FFC00
00180600
00180600
00180600
00180600
00180600
00180600
001FFC00
001FF800
00198000
0019C000
0018E000
00187000
00183800
00181C00
00180E00
00180600
00000000
00000000
00000000
00000000
00000000
00000000
00000000
ENDCHAR

STARTCHAR isoE
ENCODING 14
SWIDTH 480 0
DWIDTH 25 0
BBX 25 50 0 -6
BITMAP
00000000
00000000
00000000
00000000
00000000
07F80000
0FFC0000
1C0E0000
18060000
18000000
18000000
18000000
1C000000
0FF80000
07FC0000
000E0000
00060000
00060000
00060000
18060000
1C060000
0FF80000
07F80000
00000000
00000000
0007F800
000FFC00
001C0E00
00180600
00180600
00180600
00180600
00180600
00180600
00180600
00180600
00180600
00180600
00180600
00180600
001C0E00
000FFC00
0007F800
00000000
00000000
00000000
00000000
00000000
00000000
00000000
ENDCHAR

STARTCHAR isoF
ENCODING 15
SWIDTH 480 0
DWIDTH 25 0
BBX 25 50 0 -6
BITMAP
00000000
00000000
00000000
00000000
00000000
07F80000
0FFC0000
1C0E0000
18060000
18000000
18000000
18000000
1C000000
0FF80000
07FC0000
000E0000
00060000
00060000
00060000
18060000
1C0E0000
0FFC0000
07F80000
00000000
00000000
0007E000
0007E000
00018000
00018000
00018000
00018000
00018000
00018000
00018000
00018000
00018000
00018000
00018000
00018000
00018000
00018000
0007E000
0007E000
00000000
00000000
00000000
00000000
00000000
00000000
00000000
ENDCHAR

STARTCHAR iso10
ENCODING 16
SWIDTH 480 0
DWIDTH 25 0
BBX 25 50 0 -6
BITMAP
00000000
00000000
00000000
00000000
00000000
1FE00000
1FF00000
18380000
181C0000
180E0000
18060000
18060000
18060000
18060000
18060000
18060000
18060000
18060000
180E0000
181C0000
18380000
1FF00000
1FE00000
00000000
00000000
00180000
00180000
00180000
00180000
00180000
00180000
00180000
00180000
00180000
00180000
00180000
00180000
00180000
00180000
00180000
00180000
001FFE00
001FFE00
00000000
00000000
00000000
00000000
00000000
00000000
00000000
ENDCHAR

STARTCHAR iso11
ENCODING 17
SWIDTH 480 0
DWIDTH 25 0
BBX 25 50 0 -6
BITMAP
00000000
00000000
00000000
00000000
00000000
1FE00000
1FF00000
18380000
181C0000
180E0000
18060000
18060000
18060000
18060000
18060000
18060000
18060000
18060000
180E0000
181C0000
18380000
1FF00000
1FE00000
00000000
00000000
00006000
00006000
0001E000
0001E000
00066000
00066000
00006000
00006000
00006000
00006000
00006000
00006000
00006000
00006000
00006000
00006000
0007FE00
0007FE00
00000000
00000000
00000000
00000000
00000000
00000000
00000000
ENDCHAR

STARTCHAR iso12
ENCODING 18
SWIDTH 480 0
DWIDTH 25 0
BBX 25 50 0 -6
BITMAP
00000000
00000000
00000000
00000000
00000000
1FE00000
1FF00000
18380000
181C0000
180E0000
18060000
18060000
18060000
18060000
18060000
18060000
18060000
18060000
180E0000
181C0000
18380000
1FF00000
1FE00000
00000000
00000000
0007F800
000FFC00
001C0E00
00180600
00180600
00180E00
00001C00
00003800
00007000
0000E000
0001C000
00038000
00070000
000E0000
001C0000
00180000
001FFE00
001FFE00
00000000
00000000
00000000
00000000
00000000
00000000
00000000
ENDCHAR

STARTCHAR iso13
ENCODING 19
SWIDTH 480 0
DWIDTH 25 0
BBX 25 50 0 -6
BITMAP
00000000
00000000
00000000
00000000
00000000
1FE00000
1FF00000
18380000
181C0000
180E0000
18060000
18060000
18060000
18060000
18060000
18060000
18060000
18060000
180E0000
181C0000
18380000
1FF00000
1FE00000
00000000
00000000
0007F800
000FFC00
001C0E00
00180600
00000600
00000600
00000600
00000600
0001FC00
0001FC00
00000600
00000600
00000600
00000600
00180600
001C0E00
000FFC00
0007F800
00000000
00000000
00000000
00000000
00000000
00000000
00000000
ENDCHAR

STARTCHAR iso14
ENCODING 20
SWIDTH 480 0
DWIDTH 25 0
BBX 25 50 0 -6
BITMAP
00000000
00000000
00000000
00000000
00000000
1FE00000
1FF00000
18380000
181C0000
180E0000
18060000
18060000
18060000
18060000
18060000
18060000
18060000
18060000
180E0000
181C0000
18380000
1FF00000
1FE00000
00000000
00000000
00006000
0000E000
0001E000
0003E000
00076000
000E6000
001C6000
00386000
00706000
00606000
00606000
00606000
007FF800
007FF800
00006000
00006000
00006000
00006000
00000000
00000000
00000000
00000000
00000000
00000000
00000000
ENDCHAR

STARTCHAR iso15
ENCODING 21
SWIDTH 480 0
DWIDTH 25 0
BBX 25 50 0 -6
BITMAP
00000000
00000000
00000000
00000000
00000000
18060000
18060000
18060000
1C060000
1E060000
1F060000
1B860000
19C60000
18E60000
18760000
183E0000
181E0000
180E0000
18060000
18060000
18060000
18060000
18060000
00000000
00000000
00180600
00180E00
00181C00
00183800
00187000
0018E000
0019C000
001B8000
001F0000
001F0000
001B8000
0019C000
0018E000
00187000
00183800
00181C00
00180E00
00180600
00000000
00000000
00000000
00000000
00000000
00000000
00000000
ENDCHAR

STARTCHAR iso16
ENCODING 22
SWIDTH 480 0
DWIDTH 25 0
BBX 25 50 0 -6
BITMAP
00000000
00000000
00000000
00000000
00000000
07F80000
0FFC0000
1C0E0000
18060000
18000000
18000000
18000000
1C000000
0FF80000
07FC0000
000E0000
00060000
00060000
00060000
18060000
1C0E0000
0FFC0000
07F80000
00000000
00000000
00600600
00700E00
00381C00
001C3800
000E7000
0007E000
0003C000
00018000
00018000
00018000
00018000
00018000
00018000
00018000
00018000
00018000
00018000
00018000
00000000
00000000
00000000
00000000
00000000
00000000
00000000
ENDCHAR

STARTCHAR iso17
ENCODING 23
SWIDTH 480 0
DWIDTH 25 0
BBX 25 50 0 -6
BITMAP
00000000
00000000
00000000
00000000
00000000
1FFE0000
1FFE0000
18000000
18000000
18000000
18000000
18000000
18000000
1FF80000
1FF80000
18000000
18000000
18000000
18000000
18000000
18000000
1FFE0000
1FFE0000
00000000
00000000
001FF800
001FFC00
00060E00
00060600
00060600
00060600
00060600
00060600
0007FC00
0007FC00
00060600
00060600
00060600
00060600
00060600
00060E00
001FFC00
001FF800
00000000
00000000
00000000
00000000
00000000
00000000
00000000
ENDCHAR

STARTCHAR iso18
ENCODING 24
SWIDTH 480 0
DWIDTH 25 0
BBX 25 50 0 -6
BITMAP
00000000
00000000
00000000
00000000
00000000
07F80000
0FFC0000
1C0E0000
18060000
18060000
18060000
18000000
18000000
18000000
18000000
18000000
18000000
18000000
18000000
18060000
1C0E0000
0FFC0000
07F80000
00000000
00000000
00180600
00180600
00180600
001C0600
001E0600
001F0600
001B8600
0019C600
0018E600
00187600
00183E00
00181E00
00180E00
00180600
00180600
00180600
00180600
00180600
00000000
00000000
00000000
00000000
00000000
00000000
00000000
ENDCHAR

STARTCHAR iso19
ENCODING 25
SWIDTH 480 0
DWIDTH 25 0
BBX 25 50 0 -6
BITMAP
00000000
00000000
00000000
00000000
00000000
1FFE0000
1FFE0000
18000000
18000000
18000000
18000000
18000000
18000000
1FF80000
1FF80000
18000000
18000000
18000000
18000000
18000000
18000000
1FFE0000
1FFE0000
00000000
00000000
00181800
00181800
001C3800
001C3800
001C3800
001E7800
001E7800
001E7800
001BD800
00199800
00199800
00199800
00199800
00181800
00181800
00181800
00181800
00181800
00000000
00000000
00000000
00000000
00000000
00000000
00000000
ENDCHAR

STARTCHAR iso1A
ENCODING 26
SWIDTH 480 0
DWIDTH 25 0
BBX 25 50 0 -6
BITMAP
00000000
00000000
00000000
00000000
00000000
07F80000
0FFC0000
1C0E0000
18060000
18000000
18000000
18000000
1C000000
0FF80000
07FC0000
000E0000
00060000
00060000
00060000
18060000
1C0E0000
0FFC0000
07F80000
00000000
00000000
001FF800
001FFC00
00060E00
00060600
00060600
00060600
00060600
00060600
0007FC00
0007FC00
00060600
00060600
00060600
00060600
00060600
00060E00
001FFC00
001FF800
00000000
00000000
00000000
00000000
00000000
00000000
00000000
ENDCHAR

STARTCHAR iso1B
ENCODING 27
SWIDTH 480 0
DWIDTH 25 0
BBX 25 50 0 -6
BITMAP
00000000
00000000
00000000
00000000
00000000
1FFE0000
1FFE0000
18000000
18000000
18000000
18000000
18000000
18000000
1FF80000
1FF80000
18000000
18000000
18000000
18000000
18000000
18000000
1FFE0000
1FFE0000
00000000
00000000
0007F800
000FFC00
001C0E00
00180600
00180600
00180600
00180000
00180000
00180000
00180000
00180000
00180000
00180000
00180000
00180600
001C0E00
000FFC00
0007F800
00000000
00000000
00000000
00000000
00000000
00000000
00000000
ENDCHAR

STARTCHAR iso1C
ENCODING 28
SWIDTH 480 0
DWIDTH 25 0
BBX 25 50 0 -6
BITMAP
00000000
00000000
00000000
00000000
00000000
1FFE0000
1FFE0000
18000000
18000000
18000000
18000000
18000000
18000000
1FF80000
1FF80000
18000000
18000000
18000000
18000000
18000000
18000000
18000000
18000000
00000000
00000000
0007F800
000FFC00
001C0E00
00180600
00180000
00180000
00180000
001C0000
000FF800
0007FC00
00000E00
00000600
00000600
00000600
00180600
001C0E00
000FFC00
0007F800
00000000
00000000
00000000
00000000
00000000
00000000
00000000
ENDCHAR

STARTCHAR iso1D
ENCODING 29
SWIDTH 480 0
DWIDTH 25 0
BBX 25 50 0 -6
BITMAP
00000000
00000000
00000000
00000000
00000000
07F80000
0FFC0000
1C0E0000
18060000
18000000
18000000
18000000
18000000
18000000
18000000
187E0000
187E0000
18060000
18060000
18060000
1C0E0000
0FFE0000
07FA0000
00000000
00000000
0007F800
000FFC00
001C0E00
00180600
00180000
00180000
00180000
001C0000
000FF800
0007FC00
00000E00
00000600
00000600
00000600
00180600
001C0E00
000FFC00
0007F800
00000000
00000000
00000000
00000000
00000000
00000000
00000000
ENDCHAR

STARTCHAR iso1E
ENCODING 30
SWIDTH 480 0
DWIDTH 25 0
BBX 25 50 0 -6
BITMAP
00000000
00000000
00000000
00000000
00000000
1FF80000
1FFC0000
180E0000
18060000
18060000
18060000
18060000
180E0000
1FFC0000
1FF80000
1B800000
19C00000
18E00000
18700000
18380000
181C0000
180E0000
18060000
00000000
00000000
0007F800
000FFC00
001C0E00
00180600
00180000
00180000
00180000
001C0000
000FF800
0007FC00
00000E00
00000600
00000600
00000600
00180600
001C0E00
000FFC00
0007F800
00000000
00000000
00000000
00000000
00000000
00000000
00000000
ENDCHAR

STARTCHAR iso1F
ENCODING 31
SWIDTH 480 0
DWIDTH 25 0
BBX 25 50 0 -6
BITMAP
00000000
00000000
00000000
00000000
00000000
18060000
18060000
18060000
18060000
18060000
18060000
18060000
18060000
18060000
18060000
18060000
18060000
18060000
18060000
18060000
1C0E0000
0FFC0000
07F80000
00000000
00000000
0007F800
000FFC00
001C0E00
00180600
00180000
00180000
00180000
001C0000
000FF800
0007FC00
00000E00
00000600
00000600
00000600
00180600
001C0E00
000FFC00
0007F800
00000000
00000000
00000000
00000000
00000000
00000000
00000000
ENDCHAR

STARTCHAR iso20
ENCODING 32
SWIDTH 480 0
DWIDTH 25 0
BBX 25 50 0 -6
BITMAP
00000000
00000000
00000000
00000000
00000000
00000000
00000000
00000000
00000000
00000000
00000000
00000000
00000000
00000000
00000000
00000000
00000000
00000000
00000000
00000000
00000000
00000000
00000000
00000000
00000000
00000000
00000000
00000000
00000000
00000000
00000000
00000000
00000000
00000000
00000000
00000000
00000000
00000000
00000000
00000000
00000000
00000000
00000000
00000000
00000000
00000000
00000000
00000000
00000000
00000000
ENDCHAR

STARTCHAR iso21
ENCODING 33
SWIDTH 480 0
DWIDTH 25 0
BBX 25 50 0 -6
BITMAP
00000000
00000000
00000000
00000000
00000000
00000000
001E0000
001E0000
003F0000
003F0000
003F0000
003F0000
003F0000
001E0000
001E0000
001E0000
001E0000
001E0000
001E0000
001E0000
001E0000
001E0000
001E0000
000C0000
000C0000
000C0000
000C0000
000C0000
000C0000
000C0000
000C0000
000C0000
000C0000
000C0000
00000000
00000000
00000000
00000000
001E0000
003F0000
003F0000
003F0000
003F0000
001E0000
00000000
00000000
00000000
00000000
00000000
00000000
ENDCHAR

STARTCHAR iso22
ENCODING 34
SWIDTH 480 0
DWIDTH 25 0
BBX 25 50 0 -6
BITMAP
00000000
00000000
00000000
00C0C000
01E1E000
01E1E000
01E1E000
01E1E000
01E1E000
00C0C000
00C0C000
00C0C000
00C0C000
00C0C000
00000000
00000000
00000000
00000000
00000000
00000000
00000000
00000000
00000000
00000000
00000000
00000000
00000000
00000000
00000000
00000000
00000000
00000000
00000000
00000000
00000000
00000000
00000000
00000000
00000000
00000000
00000000
00000000
00000000
00000000
00000000
00000000
00000000
00000000
00000000
00000000
ENDCHAR

STARTCHAR iso23
ENCODING 35
SWIDTH 480 0
DWIDTH 25 0
BBX 25 50 0 -6
BITMAP
00000000
00000000
00000000
00000000
00000000
00000000
00603000
00603000
00603000
00603000
00603000
00E07000
00C06000
00C06000
00C06000
0FFFFF00
0FFFFF00
1FFFFE00
1FFFFE00
00C06000
00C06000
00C06000
00C06000
00C06000
01C0E000
0180C000
0180C000
0180C000
0180C000
0180C000
0180C000
1FFFFE00
1FFFFE00
3FFFFC00
3FFFFC00
0180C000
0180C000
0180C000
0381C000
03018000
03018000
03018000
03018000
03018000
00000000
00000000
00000000
00000000
00000000
00000000
ENDCHAR

STARTCHAR iso24
ENCODING 36
SWIDTH 480 0
DWIDTH 25 0
BBX 25 50 0 -6
BITMAP
00000000
00000000
00000000
000C0000
000C0000
000C0000
003F0000
00FFC000
01CCF000
038C3800
070C1800
070C1C00
0E0C1C00
0E0C3C00
0E0C3C00
0E0C3C00
0F0C1800
0F0C0000
078C0000
07CC0000
03EC0000
01FC0000
00FE0000
007F0000
001FC000
000FE000
000FF000
000DF800
000CFC00
000C7C00
000C3E00
0E0C1E00
0F0C1E00
1F0C0E00
1F0C0E00
1E0C0E00
1C0C0E00
0C0C1C00
0E0C1C00
070C3800
03CCF000
01FFE000
007F8000
000C0000
000C0000
000C0000
000C0000
00000000
00000000
00000000
ENDCHAR

STARTCHAR iso25
ENCODING 37
SWIDTH 480 0
DWIDTH 25 0
BBX 25 50 0 -6
BITMAP
00000000
00000000
00000000
00000000
00000000
00000000
00000000
03C00000
07E00600
0E700600
0E700C00
1C380C00
1C381800
1C381800
1C383000
1C383000
1C386000
1C38E000
1C38C000
1C398000
1C398000
0E730000
0E730000
07E60000
03CE0000
000CF000
0019F800
001B9C00
00339C00
00370E00
00670E00
00C70E00
00C70E00
01870E00
01870E00
03070E00
03070E00
06070E00
0C070E00
0C039C00
18039C00
1801F800
0000F000
00000000
00000000
00000000
00000000
00000000
00000000
00000000
ENDCHAR

STARTCHAR iso26
ENCODING 38
SWIDTH 480 0
DWIDTH 25 0
BBX 25 50 0 -6
BITMAP
00000000
00000000
00000000
00000000
00000000
00380000
00FE0000
01C70000
03830000
03838000
07038000
07038000
07038000
07838000
03878000
03870000
03870000
03CE0000
01DC0000
01D80000
01F0FE00
00E0FE00
01E03C00
03F01800
03701800
06701800
0E781800
1C381800
1C3C1800
1C1C1800
3C1C1800
381E3000
380E3000
380F3000
3C073000
3C07E000
3C03E000
1E03C200
1E01E600
0F03FE00
07FF7C00
01FC3C00
00701800
00000000
00000000
00000000
00000000
00000000
00000000
00000000
ENDCHAR

STARTCHAR iso27
ENCODING 39
SWIDTH 480 0
DWIDTH 25 0
BBX 25 50 0 -6
BITMAP
00000000
00000000
00000000
0E000000
1F000000
1F800000
1F800000
1F800000
07800000
03000000
03000000
06000000
0C000000
18000000
00000000
00000000
00000000
00000000
00000000
00000000
00000000
00000000
00000000
00000000
00000000
00000000
00000000
00000000
00000000
00000000
00000000
00000000
00000000
00000000
00000000
00000000
00000000
00000000
00000000
00000000
00000000
00000000
00000000
00000000
00000000
00000000
00000000
00000000
00000000
00000000
ENDCHAR

STARTCHAR iso28
ENCODING 40
SWIDTH 480 0
DWIDTH 25 0
BBX 25 50 0 -6
BITMAP
00000000
00000000
00000000
00000600
00001C00
00003000
00006000
0000C000
00018000
00030000
00070000
000E0000
000C0000
001C0000
00180000
00380000
00380000
00700000
00700000
00700000
00E00000
00E00000
00E00000
00E00000
00E00000
00E00000
00E00000
00E00000
00E00000
00E00000
00700000
00700000
00700000
00380000
00380000
00180000
001C0000
000C0000
000E0000
00070000
00030000
00018000
0000C000
00006000
00003000
00001C00
00000600
00000000
00000000
00000000
ENDCHAR

STARTCHAR iso29
ENCODING 41
SWIDTH 480 0
DWIDTH 25 0
BBX 25 50 0 -6
BITMAP
00000000
00000000
00000000
18000000
0E000000
03000000
01800000
00C00000
00600000
00300000
00380000
001C0000
000C0000
000E0000
00060000
00070000
00070000
00038000
00038000
00038000
0001C000
0001C000
0001C000
0001C000
0001C000
0001C000
0001C000
0001C000
0001C000
0001C000
00038000
00038000
00038000
00070000
00070000
00060000
000E0000
000C0000
001C0000
00380000
00300000
00600000
00C00000
01800000
03000000
0E000000
18000000
00000000
00000000
00000000
ENDCHAR

STARTCHAR iso2A
ENCODING 42
SWIDTH 480 0
DWIDTH 25 0
BBX 25 50 0 -6
BITMAP
00000000
00000000
00000000
00000000
00000000
00000000
00000000
00000000
00000000
000C0000
001E0000
001E0000
001E0000
001E0000
001E0000
0C0C0C00
1E0C1E00
1F0C3E00
0F0C3C00
078C7800
01CCE000
00EDC000
007F8000
003F0000
001E0000
003F0000
007F8000
00EDC000
01CCE000
078C7800
0F0C3C00
1F0C3E00
1E0C1E00
0C0C0C00
001E0000
001E0000
001E0000
001E0000
001E0000
000C0000
00000000
00000000
00000000
00000000
00000000
00000000
00000000
00000000
00000000
00000000
ENDCHAR

STARTCHAR iso2B
ENCODING 43
SWIDTH 480 0
DWIDTH 25 0
BBX 25 50 0 -6
BITMAP
00000000
00000000
00000000
00000000
00000000
00000000
00000000
00000000
00000000
000C0000
000C0000
000C0000
000C0000
000C0000
000C0000
000C0000
000C0000
000C0000
000C0000
000C0000
000C0000
000C0000
000C0000
000C0000
1FFFFE00
1FFFFE00
000C0000
000C0000
000C0000
000C0000
000C0000
000C0000
000C0000
000C0000
000C0000
000C0000
000C0000
000C0000
000C0000
000C0000
000C0000
00000000
00000000
00000000
00000000
00000000
00000000
00000000
00000000
00000000
ENDCHAR

STARTCHAR iso2C
ENCODING 44
SWIDTH 480 0
DWIDTH 25 0
BBX 25 50 0 -6
BITMAP
00000000
00000000
00000000
00000000
00000000
00000000
00000000
00000000
00000000
00000000
00000000
00000000
00000000
00000000
00000000
00000000
00000000
00000000
00000000
00000000
00000000
00000000
00000000
00000000
00000000
00000000
00000000
00000000
00000000
00000000
00000000
00000000
00000000
00000000
00000000
00000000
0F000000
1F800000
1F800000
1F800000
0F800000
03800000
03000000
07000000
06000000
0C000000
18000000
00000000
00000000
00000000
ENDCHAR

STARTCHAR iso2D
ENCODING 45
SWIDTH 480 0
DWIDTH 25 0
BBX 25 50 0 -6
BITMAP
00000000
00000000
00000000
00000000
00000000
00000000
00000000
00000000
00000000
00000000
00000000
00000000
00000000
00000000
00000000
00000000
00000000
00000000
00000000
00000000
00000000
00000000
00000000
00000000
1FFFFE00
1FFFFE00
00000000
00000000
00000000
00000000
00000000
00000000
00000000
00000000
00000000
00000000
00000000
00000000
00000000
00000000
00000000
00000000
00000000
00000000
00000000
00000000
00000000
00000000
00000000
00000000
ENDCHAR

STARTCHAR iso2E
ENCODING 46
SWIDTH 480 0
DWIDTH 25 0
BBX 25 50 0 -6
BITMAP
00000000
00000000
00000000
00000000
00000000
00000000
00000000
00000000
00000000
00000000
00000000
00000000
00000000
00000000
00000000
00000000
00000000
00000000
00000000
00000000
00000000
00000000
00000000
00000000
00000000
00000000
00000000
00000000
00000000
00000000
00000000
00000000
00000000
00000000
00000000
00000000
00000000
00000000
0F000000
1F800000
1F800000
1F800000
1F800000
0F000000
00000000
00000000
00000000
00000000
00000000
00000000
ENDCHAR

STARTCHAR iso2F
ENCODING 47
SWIDTH 480 0
DWIDTH 25 0
BBX 25 50 0 -6
BITMAP
00000000
00000000
00000000
00000600
00000600
00000C00
00000C00
00001800
00001800
00001800
00003000
00003000
00006000
00006000
0000C000
0000C000
0000C000
00018000
00018000
00030000
00030000
00060000
00060000
00060000
000C0000
000C0000
00180000
00180000
00180000
00300000
00300000
00600000
00600000
00C00000
00C00000
00C00000
01800000
01800000
03000000
03000000
06000000
06000000
06000000
0C000000
0C000000
18000000
18000000
00000000
00000000
00000000
ENDCHAR

STARTCHAR iso30
ENCODING 48
SWIDTH 480 0
DWIDTH 25 0
BBX 25 50 0 -6
BITMAP
00000000
00000000
00000000
00000000
00000000
00000000
001E0000
007F8000
00E1C000
01C0E000
03807000
03807000
07003800
07003800
07003800
0F003C00
0E001C00
0E001C00
0E001C00
1E001E00
1E001E00
1E001E00
1E001E00
1E001E00
1E001E00
1E001E00
1E001E00
1E001E00
1E001E00
1E001E00
0E001C00
0E001C00
0F003C00
0F003C00
07003800
07003800
07807800
03807000
03807000
01C0E000
00E1C000
007F8000
001E0000
00000000
00000000
00000000
00000000
00000000
00000000
00000000
ENDCHAR

STARTCHAR iso31
ENCODING 49
SWIDTH 480 0
DWIDTH 25 0
BBX 25 50 0 -6
BITMAP
00000000
00000000
00000000
00000000
00000000
00000000
00020000
000E0000
003E0000
03FE0000
03FE0000
003E0000
001E0000
001E0000
001E0000
001E0000
001E0000
001E0000
001E0000
001E0000
001E0000
001E0000
001E0000
001E0000
001E0000
001E0000
001E0000
001E0000
001E0000
001E0000
001E0000
001E0000
001E0000
001E0000
001E0000
001E0000
001E0000
001E0000
001E0000
003F0000
03FFF000
03FFF000
00000000
00000000
00000000
00000000
00000000
00000000
00000000
00000000
ENDCHAR

STARTCHAR iso32
ENCODING 50
SWIDTH 480 0
DWIDTH 25 0
BBX 25 50 0 -6
BITMAP
00000000
00000000
00000000
00000000
00000000
00000000
003F0000
00FFC000
01E1F000
03807800
07003C00
06003C00
0E001E00
0E001E00
0F001E00
0F801E00
0F801E00
07801E00
03003C00
00003C00
00007800
00007800
0000F000
0001E000
0001C000
00038000
00070000
000E0000
001C0000
00380000
00700000
00E00000
01C00000
01800600
03000600
03000600
06000E00
04001C00
0FFFFC00
0FFFFC00
1FFFFC00
1FFFFC00
00000000
00000000
00000000
00000000
00000000
00000000
00000000
00000000
ENDCHAR

STARTCHAR iso33
ENCODING 51
SWIDTH 480 0
DWIDTH 25 0
BBX 25 50 0 -6
BITMAP
00000000
00000000
00000000
00000000
00000000
00000000
003F0000
00FFC000
01E3E000
0380F000
07007000
06007800
0F003800
0F803C00
0F803C00
07003C00
00003C00
00003800
00003800
00007800
00007000
0000E000
0001C000
007F0000
007FC000
0000F000
00007800
00003800
00003C00
00001C00
00001E00
00001E00
0E001E00
1F001E00
1F001E00
1F001E00
1E001C00
0E003C00
0E003800
07007800
03C1F000
00FFE000
003F0000
00000000
00000000
00000000
00000000
00000000
00000000
00000000
ENDCHAR

STARTCHAR iso34
ENCODING 52
SWIDTH 480 0
DWIDTH 25 0
BBX 25 50 0 -6
BITMAP
00000000
00000000
00000000
00000000
00000000
00000000
00006000
0000E000
0000E000
0001E000
0001E000
0003E000
0007E000
0007E000
000DE000
000DE000
0019E000
0031E000
0031E000
0061E000
0061E000
00C1E000
0181E000
0181E000
0301E000
0301E000
0601E000
0C01E000
0C01E000
1801E000
1801E000
3FFFFF00
3FFFFF00
0001E000
0001E000
0001E000
0001E000
0001E000
0001E000
0003F000
001FFE00
001FFE00
00000000
00000000
00000000
00000000
00000000
00000000
00000000
00000000
ENDCHAR

STARTCHAR iso35
ENCODING 53
SWIDTH 480 0
DWIDTH 25 0
BBX 25 50 0 -6
BITMAP
00000000
00000000
00000000
00000000
00000000
00000000
00000000
07FFFC00
07FFFC00
07FFF800
07FFF800
06000000
06000000
06000000
06000000
06000000
06000000
06000000
06000000
060F0000
063FC000
06F1F000
07C07800
07003800
07003C00
06001C00
00001E00
00001E00
00001E00
00001E00
00001E00
00001E00
07001E00
0F801E00
1F801E00
1F803C00
1F003C00
0E003800
0E007800
0700F000
03C1E000
00FFC000
003F0000
00000000
00000000
00000000
00000000
00000000
00000000
00000000
ENDCHAR

STARTCHAR iso36
ENCODING 54
SWIDTH 480 0
DWIDTH 25 0
BBX 25 50 0 -6
BITMAP
00000000
00000000
00000000
00000000
00000000
00000000
000FC000
003FF000
00787800
00E03C00
01C03C00
03807C00
03807C00
07003800
07000000
0F000000
0F000000
0E000000
0E000000
1E000000
1E078000
1E1FE000
1E7FF000
1EF0F800
1FC07800
1F803C00
1F003C00
1E001E00
1E001E00
1E001E00
1E001E00
1E001E00
1E001E00
0E001E00
0F001E00
0F001C00
07001C00
07803C00
03803800
03C07000
01E1E000
00FFC000
003F0000
00000000
00000000
00000000
00000000
00000000
00000000
00000000
ENDCHAR

STARTCHAR iso37
ENCODING 55
SWIDTH 480 0
DWIDTH 25 0
BBX 25 50 0 -6
BITMAP
00000000
00000000
00000000
00000000
00000000
00000000
00000000
0FFFFE00
0FFFFE00
0FFFFE00
0FFFFE00
0E000C00
0C001800
1C001800
18003000
18003000
18006000
00006000
0000C000
0001C000
00018000
00038000
00030000
00070000
00070000
00060000
000E0000
000E0000
001E0000
001E0000
001C0000
001C0000
003C0000
003C0000
003C0000
003C0000
003C0000
007C0000
007C0000
007C0000
007C0000
00380000
00380000
00000000
00000000
00000000
00000000
00000000
00000000
00000000
ENDCHAR

STARTCHAR iso38
ENCODING 56
SWIDTH 480 0
DWIDTH 25 0
BBX 25 50 0 -6
BITMAP
00000000
00000000
00000000
00000000
00000000
00000000
007F0000
01FFC000
0381E000
07007000
0E003800
0E003800
0E003C00
1C003C00
1C001C00
1C001C00
1E003C00
1E003C00
0F003800
0F807800
07E0F000
03F1E000
01FF8000
007F0000
00FFC000
03C7E000
0781F000
0F00F800
1E003C00
1E003C00
1C001E00
3C001E00
3C000E00
3C000E00
3C000E00
1C000E00
1E001E00
1E001C00
0F003C00
07807800
03E1F000
00FFC000
001E0000
00000000
00000000
00000000
00000000
00000000
00000000
00000000
ENDCHAR

STARTCHAR iso39
ENCODING 57
SWIDTH 480 0
DWIDTH 25 0
BBX 25 50 0 -6
BITMAP
00000000
00000000
00000000
00000000
00000000
00000000
003F0000
00FFC000
01E3E000
0380F000
07007000
0F007800
0E003800
0E003C00
1E003C00
1E001C00
1E001E00
1E001E00
1E001E00
1E001E00
1E001E00
1E001E00
0F001E00
0F003E00
07807E00
07C1FE00
03FFDE00
00FF1E00
00381E00
00001C00
00001C00
00003C00
00003C00
00003800
00003800
07007800
0F807000
0F80F000
0F80E000
0701C000
03878000
01FF0000
007C0000
00000000
00000000
00000000
00000000
00000000
00000000
00000000
ENDCHAR

STARTCHAR iso3A
ENCODING 58
SWIDTH 480 0
DWIDTH 25 0
BBX 25 50 0 -6
BITMAP
00000000
00000000
00000000
00000000
00000000
00000000
00000000
00000000
00000000
00000000
00000000
00000000
00000000
00000000
00000000
00000000
00000000
00000000
00000000
001C0000
003E0000
003E0000
003E0000
001C0000
00000000
00000000
00000000
00000000
00000000
00000000
00000000
00000000
00000000
00000000
00000000
00000000
001C0000
003E0000
003E0000
003E0000
001C0000
00000000
00000000
00000000
00000000
00000000
00000000
00000000
00000000
00000000
ENDCHAR

STARTCHAR iso3B
ENCODING 59
SWIDTH 480 0
DWIDTH 25 0
BBX 25 50 0 -6
BITMAP
00000000
00000000
00000000
00000000
00000000
00000000
00000000
00000000
00000000
00000000
00000000
00000000
00000000
00000000
00000000
00000000
00000000
00000000
00000000
001C0000
003E0000
003E0000
003E0000
001C0000
00000000
00000000
00000000
00000000
00000000
00000000
00000000
00000000
00000000
00000000
00000000
001C0000
003E0000
003E0000
003E0000
001E0000
00060000
00060000
000C0000
000C0000
00180000
00300000
00200000
00000000
00000000
00000000
ENDCHAR

STARTCHAR iso3C
ENCODING 60
SWIDTH 480 0
DWIDTH 25 0
BBX 25 50 0 -6
BITMAP
00000000
00000000
00000000
00000000
00000000
00000000
00000000
00000000
00000C00
00001C00
00003800
00007000
0000E000
0001C000
00038000
00070000
000E0000
001C0000
00380000
00700000
00E00000
01C00000
03800000
07000000
0E000000
0E000000
07000000
03800000
01C00000
00E00000
00700000
00380000
001C0000
000E0000
00070000
00038000
0001C000
0000E000
00007000
00003800
00001C00
00000C00
00000000
00000000
00000000
00000000
00000000
00000000
00000000
00000000
ENDCHAR

STARTCHAR iso3D
ENCODING 61
SWIDTH 480 0
DWIDTH 25 0
BBX 25 50 0 -6
BITMAP
00000000
00000000
00000000
00000000
00000000
00000000
00000000
00000000
00000000
00000000
00000000
00000000
00000000
00000000
00000000
00000000
00000000
00000000
00000000
00000000
1FFFFE00
1FFFFE00
00000000
00000000
00000000
00000000
00000000
00000000
1FFFFE00
1FFFFE00
00000000
00000000
00000000
00000000
00000000
00000000
00000000
00000000
00000000
00000000
00000000
00000000
00000000
00000000
00000000
00000000
00000000
00000000
00000000
00000000
ENDCHAR

STARTCHAR iso3E
ENCODING 62
SWIDTH 480 0
DWIDTH 25 0
BBX 25 50 0 -6
BITMAP
00000000
00000000
00000000
00000000
00000000
00000000
00000000
00000000
0C000000
0E000000
07000000
03800000
01C00000
00E00000
00700000
00380000
001C0000
000E0000
00070000
00038000
0001C000
0000E000
00007000
00003800
00001C00
00001C00
00003800
00007000
0000E000
0001C000
00038000
00070000
000E0000
001C0000
00380000
00700000
00E00000
01C00000
03800000
07000000
0E000000
0C000000
00000000
00000000
00000000
00000000
00000000
00000000
00000000
00000000
ENDCHAR

STARTCHAR iso3F
ENCODING 63
SWIDTH 480 0
DWIDTH 25 0
BBX 25 50 0 -6
BITMAP
00000000
00000000
00000000
00000000
00000000
003F0000
00FFE000
03C0F000
07007800
06003C00
0E003C00
0C001E00
1C001E00
1E001E00
1F001E00
1F001E00
1F001E00
0E003C00
00003C00
00007800
0000F000
0001E000
0001C000
00038000
00070000
00060000
000E0000
000C0000
000C0000
00180000
00180000
00180000
00180000
00000000
00000000
00000000
00000000
003C0000
007E0000
007E0000
007E0000
007E0000
003C0000
00000000
00000000
00000000
00000000
00000000
00000000
00000000
ENDCHAR

STARTCHAR iso40
ENCODING 64
SWIDTH 480 0
DWIDTH 25 0
BBX 25 50 0 -6
BITMAP
00000000
00000000
00000000
00000000
00000000
001F0000
007FC000
00F8E000
01E07000
03C03800
03801800
07000C00
07000C00
0F000600
0E033600
0E0FF600
0E1EF600
1E18E200
1C38E200
1C38E200
1C70E200
3C70E200
3870C200
38E0C200
38E1C600
38E1C600
38E1C600
38E1C400
38E18400
39C18C00
39C38F00
3DC38B00
1CC39B00
1CE7B300
1CFFE600
1C71C600
0E000600
0E000C00
0F000C00
07001800
07803800
03807000
01C0E000
00FFC000
003F0000
00000000
00000000
00000000
00000000
00000000
ENDCHAR

STARTCHAR iso41
ENCODING 65
SWIDTH 480 0
DWIDTH 25 0
BBX 25 50 0 -6
BITMAP
00000000
00000000
00000000
00000000
00000000
00040000
000C0000
001E0000
001E0000
001E0000
001E0000
003E0000
003F0000
003F0000
003F0000
006F0000
00670000
00678000
00678000
00C78000
00C78000
00C3C000
00C3C000
00C3C000
0183C000
0183C000
0181E000
01FFE000
01FFE000
0301E000
0300E000
0300F000
0300F000
0600F000
0600F000
06007000
06007800
06007800
0C007800
0C007C00
3F81FF00
3F81FF00
00000000
00000000
00000000
00000000
00000000
00000000
00000000
00000000
ENDCHAR

STARTCHAR iso42
ENCODING 66
SWIDTH 480 0
DWIDTH 25 0
BBX 25 50 0 -6
BITMAP
00000000
00000000
00000000
00000000
00000000
00000000
3FFF0000
3FFFC000
0FC0F000
07807800
07807800
07803C00
07803C00
07803C00
07803C00
07803C00
07803C00
07803C00
07807800
07807800
0780F000
0783E000
07FF0000
07FFC000
0781F000
07807C00
07803C00
07801E00
07801E00
07800F00
07800F00
07800F00
07800F00
07800F00
07800F00
07801F00
07801E00
07803E00
07807C00
0FC0F800
3FFFE000
3FFF0000
00000000
00000000
00000000
00000000
00000000
00000000
00000000
00000000
ENDCHAR

STARTCHAR iso43
ENCODING 67
SWIDTH 480 0
DWIDTH 25 0
BBX 25 50 0 -6
BITMAP
00000000
00000000
00000000
00000000
00000000
003E0000
00FF8C00
01E1FC00
03C07C00
07803C00
07001C00
0F000C00
0F000E00
1E000600
1E000600
1E000600
1E000600
3E000000
3C000000
3C000000
3C000000
3C000000
3C000000
3C000000
3C000000
3C000000
3C000000
3C000000
3C000000
3E000000
1E000000
1E000000
1E000100
1E000300
0F000300
0F000600
07800600
07800C00
03C01C00
01F07800
00FFF000
007FC000
001F0000
00000000
00000000
00000000
00000000
00000000
00000000
00000000
ENDCHAR

STARTCHAR iso44
ENCODING 68
SWIDTH 480 0
DWIDTH 25 0
BBX 25 50 0 -6
BITMAP
00000000
00000000
00000000
00000000
00000000
00000000
3FF80000
3FFF0000
0FC7C000
0781E000
0780F000
07807800
07807800
07803C00
07803C00
07803E00
07801E00
07801E00
07801E00
07801F00
07800F00
07800F00
07800F00
07800F00
07800F00
07800F00
07800F00
07800F00
07801F00
07801E00
07801E00
07801E00
07801E00
07803C00
07803C00
07807800
07807800
0780F000
0781E000
0FC7C000
3FFF0000
3FF80000
00000000
00000000
00000000
00000000
00000000
00000000
00000000
00000000
ENDCHAR

STARTCHAR iso45
ENCODING 69
SWIDTH 480 0
DWIDTH 25 0
BBX 25 50 0 -6
BITMAP
00000000
00000000
00000000
00000000
00000000
00000000
3FFFFC00
3FFFFC00
0FC07C00
07803C00
07801C00
07800E00
07800E00
07800600
07800600
07800600
07800000
0780C000
0780C000
0780C000
0781C000
0783C000
07FFC000
07FFC000
0783C000
0781C000
0780C000
0780C000
0780C000
0780C000
07800000
07800000
07800300
07800300
07800300
07800700
07800600
07800E00
07801E00
0F803E00
3FFFFE00
3FFFFE00
00000000
00000000
00000000
00000000
00000000
00000000
00000000
00000000
ENDCHAR

STARTCHAR iso46
ENCODING 70
SWIDTH 480 0
DWIDTH 25 0
BBX 25 50 0 -6
BITMAP
00000000
00000000
00000000
00000000
00000000
00000000
3FFFFC00
3FFFFC00
0FC0FC00
07803E00
07801E00
07800E00
07800600
07800700
07800300
07800300
07800000
07818000
07818000
07818000
07838000
07878000
07FF8000
07FF8000
07878000
07838000
07818000
07818000
07818000
07818000
07800000
07800000
07800000
07800000
07800000
07800000
07800000
07800000
07800000
0FC00000
3FF80000
3FF80000
00000000
00000000
00000000
00000000
00000000
00000000
00000000
00000000
ENDCHAR

STARTCHAR iso47
ENCODING 71
SWIDTH 480 0
DWIDTH 25 0
BBX 25 50 0 -6
BITMAP
00000000
00000000
00000000
00000000
00000000
001E0800
007F9800
00F1F800
01C07800
03803800
07801C00
07001C00
0F000C00
0E000C00
0E000C00
1E000400
1E000000
1E000000
1E000000
3C000000
3C000000
3C000000
3C000000
3C000000
3C000000
3C000000
3C03FF00
3C03FF00
3C00FC00
3C007800
1C007800
1E007800
1E007800
1E007800
0E007800
0E007800
0F007800
07007800
07807800
0380F800
01C3D800
00FF8800
003E0000
00000000
00000000
00000000
00000000
00000000
00000000
00000000
ENDCHAR

STARTCHAR iso48
ENCODING 72
SWIDTH 480 0
DWIDTH 25 0
BBX 25 50 0 -6
BITMAP
00000000
00000000
00000000
00000000
00000000
00000000
3FF3FF00
3FF3FF00
0FC0FC00
07807800
07807800
07807800
07807800
07807800
07807800
07807800
07807800
07807800
07807800
07807800
07807800
07807800
07FFF800
07FFF800
07807800
07807800
07807800
07807800
07807800
07807800
07807800
07807800
07807800
07807800
07807800
07807800
07807800
07807800
07807800
0FC0FC00
3FF3FF00
3FF3FF00
00000000
00000000
00000000
00000000
00000000
00000000
00000000
00000000
ENDCHAR

STARTCHAR iso49
ENCODING 73
SWIDTH 480 0
DWIDTH 25 0
BBX 25 50 0 -6
BITMAP
00000000
00000000
00000000
00000000
00000000
00000000
07FFF800
07FFF800
003F0000
001E0000
001E0000
001E0000
001E0000
001E0000
001E0000
001E0000
001E0000
001E0000
001E0000
001E0000
001E0000
001E0000
001E0000
001E0000
001E0000
001E0000
001E0000
001E0000
001E0000
001E0000
001E0000
001E0000
001E0000
001E0000
001E0000
001E0000
001E0000
001E0000
001E0000
003F0000
07FFF800
07FFF800
00000000
00000000
00000000
00000000
00000000
00000000
00000000
00000000
ENDCHAR

STARTCHAR iso4A
ENCODING 74
SWIDTH 480 0
DWIDTH 25 0
BBX 25 50 0 -6
BITMAP
00000000
00000000
00000000
00000000
00000000
00000000
00FFFC00
00FFFC00
000FC000
00078000
00078000
00078000
00078000
00078000
00078000
00078000
00078000
00078000
00078000
00078000
00078000
00078000
00078000
00078000
00078000
00078000
00078000
00078000
00078000
00078000
00078000
00078000
00078000
00078000
00078000
00078000
00078000
0E070000
1F070000
1F0E0000
0F1C0000
0FF80000
07E00000
00000000
00000000
00000000
00000000
00000000
00000000
00000000
ENDCHAR

STARTCHAR iso4B
ENCODING 75
SWIDTH 480 0
DWIDTH 25 0
BBX 25 50 0 -6
BITMAP
00000000
00000000
00000000
00000000
00000000
00000000
3FF3FE00
3FF3FE00
0FC0F000
07806000
0780C000
0780C000
07818000
07818000
07830000
07830000
07860000
07860000
078C0000
078C0000
07980000
079C0000
07BC0000
07BC0000
07FE0000
07DE0000
07CF0000
078F0000
07870000
07878000
07878000
0783C000
0783C000
0783C000
0781E000
0781E000
0780F000
0780F000
07807800
0FC07800
3FF3FF00
3FF3FF00
00000000
00000000
00000000
00000000
00000000
00000000
00000000
00000000
ENDCHAR

STARTCHAR iso4C
ENCODING 76
SWIDTH 480 0
DWIDTH 25 0
BBX 25 50 0 -6
BITMAP
00000000
00000000
00000000
00000000
00000000
00000000
3FF00000
3FF00000
0FC00000
07800000
07800000
07800000
07800000
07800000
07800000
07800000
07800000
07800000
07800000
07800000
07800000
07800000
07800000
07800000
07800000
07800000
07800000
07800000
07800000
07800000
07800000
07800100
07800300
07800300
07800700
07800600
07800E00
07801E00
07803E00
0FC0FC00
3FFFFC00
3FFFFC00
00000000
00000000
00000000
00000000
00000000
00000000
00000000
00000000
ENDCHAR

STARTCHAR iso4D
ENCODING 77
SWIDTH 480 0
DWIDTH 25 0
BBX 25 50 0 -6
BITMAP
00000000
00000000
00000000
00000000
00000000
00000000
3F80FF00
3F80FF00
0F80FC00
0780F800
07C0F800
07C0F800
07C0F800
07C1F800
07C1F800
07C1F800
07E1F800
06E1F800
06E1F800
06E37800
06E37800
06E37800
06E37800
06F37800
06F37800
06767800
06767800
06767800
067E7800
067E7800
063E7800
063E7800
063E7800
063C7800
063C7800
063C7800
061C7800
061C7800
061C7800
0F1C7C00
3FDDFF00
3FC9FF00
00000000
00000000
00000000
00000000
00000000
00000000
00000000
00000000
ENDCHAR

STARTCHAR iso4E
ENCODING 78
SWIDTH 480 0
DWIDTH 25 0
BBX 25 50 0 -6
BITMAP
00000000
00000000
00000000
00000000
00000000
00000000
3F80FF00
3F80FF00
0F803C00
07C01800
07C01800
07E01800
07E01800
07F01800
06F01800
06F01800
06781800
06781800
067C1800
063C1800
063C1800
061E1800
061E1800
060F1800
060F1800
060F1800
06079800
06079800
0603D800
0603D800
0603D800
0601F800
0601F800
0600F800
0600F800
0600F800
06007800
06007800
06003800
0F003800
3FC01800
3FC01800
00000000
00000000
00000000
00000000
00000000
00000000
00000000
00000000
ENDCHAR

STARTCHAR iso4F
ENCODING 79
SWIDTH 480 0
DWIDTH 25 0
BBX 25 50 0 -6
BITMAP
00000000
00000000
00000000
00000000
00000000
003F0000
00FFC000
01E1E000
03C0F000
07807800
07807800
0F003C00
0F003C00
0F003C00
1E001E00
1E001E00
1E001E00
1E001E00
3E001F00
3C000F00
3C000F00
3C000F00
3C000F00
3C000F00
3C000F00
3C000F00
3C000F00
3C000F00
3C000F00
3E001F00
1E001E00
1E001E00
1E001E00
1E001E00
0F003C00
0F003C00
0F003C00
07807800
07807800
03C0F000
01E1E000
00FFC000
003F0000
00000000
00000000
00000000
00000000
00000000
00000000
00000000
ENDCHAR

STARTCHAR iso50
ENCODING 80
SWIDTH 480 0
DWIDTH 25 0
BBX 25 50 0 -6
BITMAP
00000000
00000000
00000000
00000000
00000000
00000000
3FFF8000
3FFFE000
0FC0F800
07803C00
07803C00
07801E00
07801E00
07800F00
07800F00
07800F00
07800F00
07800F00
07801F00
07801E00
07803E00
07803C00
0780F800
07FFE000
07FF8000
07800000
07800000
07800000
07800000
07800000
07800000
07800000
07800000
07800000
07800000
07800000
07800000
07800000
07800000
0FC00000
3FF80000
3FF80000
00000000
00000000
00000000
00000000
00000000
00000000
00000000
00000000
ENDCHAR

STARTCHAR iso51
ENCODING 81
SWIDTH 480 0
DWIDTH 25 0
BBX 25 50 0 -6
BITMAP
00000000
00000000
00000000
00000000
00000000
003F0000
00FFC000
01E1E000
03C0F000
07807800
07807800
0F003C00
0F003C00
0E001C00
1E001E00
1E001E00
1E001E00
1E001E00
3C000F00
3C000F00
3C000F00
3C000F00
3C000F00
3C000F00
3C000F00
3C000F00
3C000F00
3C000F00
3C000F00
3C000F00
1E001E00
1E381E00
1E7E1E00
1ECF1C00
0F871C00
0F079C00
0703B800
0703B000
0383E000
03C3E000
01E3C000
00FFC000
003DC300
0001E700
0000FE00
0000FC00
00007800
00000000
00000000
00000000
ENDCHAR

STARTCHAR iso52
ENCODING 82
SWIDTH 480 0
DWIDTH 25 0
BBX 25 50 0 -6
BITMAP
00000000
00000000
00000000
00000000
00000000
00000000
3FFF8000
3FFFE000
0FC0F000
07807800
07803C00
07803C00
07801E00
07801E00
07801E00
07801E00
07801E00
07801E00
07803C00
07803C00
07807800
0781F000
07FFC000
07FF0000
078F0000
078F0000
078F0000
07878000
07878000
0783C000
0783C000
0783C000
0781E000
0781E000
0781E000
0780F000
0780F000
0780F800
07807800
0FC07C00
3FF3FF00
3FF3FF00
00000000
00000000
00000000
00000000
00000000
00000000
00000000
00000000
ENDCHAR

STARTCHAR iso53
ENCODING 83
SWIDTH 480 0
DWIDTH 25 0
BBX 25 50 0 -6
BITMAP
00000000
00000000
00000000
00000000
00000000
007E0000
01FF9800
03C1F800
0700F800
0E007800
0E003800
1C001C00
1C001C00
1C000C00
1C000C00
1E000400
1E000000
0F000000
0F800000
07C00000
07F00000
03FC0000
01FF0000
007FC000
001FE000
0007F800
0001FC00
00007C00
00003E00
00001F00
20000F00
30000F00
30000F00
38000700
18000700
1C000700
1C000700
1E000E00
0F000E00
0F801C00
0FE07800
0C7FF000
001FC000
00000000
00000000
00000000
00000000
00000000
00000000
00000000
ENDCHAR

STARTCHAR iso54
ENCODING 84
SWIDTH 480 0
DWIDTH 25 0
BBX 25 50 0 -6
BITMAP
00000000
00000000
00000000
00000000
00000000
00000000
1FFFFE00
1FFFFE00
1F3F3E00
1E1E1E00
1C1E0E00
381E0700
381E0700
301E0300
301E0300
001E0000
001E0000
001E0000
001E0000
001E0000
001E0000
001E0000
001E0000
001E0000
001E0000
001E0000
001E0000
001E0000
001E0000
001E0000
001E0000
001E0000
001E0000
001E0000
001E0000
001E0000
001E0000
001E0000
001E0000
003F0000
01FFE000
01FFE000
00000000
00000000
00000000
00000000
00000000
00000000
00000000
00000000
ENDCHAR

STARTCHAR iso55
ENCODING 85
SWIDTH 480 0
DWIDTH 25 0
BBX 25 50 0 -6
BITMAP
00000000
00000000
00000000
00000000
00000000
00000000
3FF0FF00
3FF0FF00
0FC03C00
07801800
07801800
07801800
07801800
07801800
07801800
07801800
07801800
07801800
07801800
07801800
07801800
07801800
07801800
07801800
07801800
07801800
07801800
07801800
07801800
07801800
07801800
07801800
07801800
07801800
07801800
07801800
07801800
07C01800
03C03800
03E07000
01FFE000
00FFC000
003F0000
00000000
00000000
00000000
00000000
00000000
00000000
00000000
ENDCHAR

STARTCHAR iso56
ENCODING 86
SWIDTH 480 0
DWIDTH 25 0
BBX 25 50 0 -6
BITMAP
00000000
00000000
00000000
00000000
00000000
00000000
3FF0FF00
3FF0FF00
0FC03C00
07801800
07801800
07801800
03C01800
03C03000
03C03000
03C03000
03C03000
01E06000
01E06000
01E06000
01E06000
01E06000
00F0C000
00F0C000
00F0C000
00F0C000
00F18000
00718000
00798000
00798000
00798000
007B0000
003B0000
003F0000
003F0000
003E0000
003E0000
003E0000
001E0000
001C0000
001C0000
001C0000
001C0000
00000000
00000000
00000000
00000000
00000000
00000000
00000000
ENDCHAR

STARTCHAR iso57
ENCODING 87
SWIDTH 480 0
DWIDTH 25 0
BBX 25 50 0 -6
BITMAP
00000000
00000000
00000000
00000000
00000000
00000000
3FBF9F00
3FBF9F00
0F0E0E00
0F0E0C00
0F0E0C00
0F0E0C00
070F0C00
07070C00
07870C00
07871800
07871800
078F1800
078F9800
038F9800
038F9800
038F9800
03DB9800
03DBB000
03DBB000
03DBB000
03DBB000
01DBF000
01F3F000
01F3F000
01F3E000
01F1E000
01F1E000
01F1E000
01F1E000
00E1E000
00E1E000
00E1C000
00E1C000
00E0C000
00E0C000
00C0C000
00C0C000
00000000
00000000
00000000
00000000
00000000
00000000
00000000
ENDCHAR

STARTCHAR iso58
ENCODING 88
SWIDTH 480 0
DWIDTH 25 0
BBX 25 50 0 -6
BITMAP
00000000
00000000
00000000
00000000
00000000
00000000
1FF0FE00
1FF0FE00
03C03800
03C03000
01E03000
01E06000
01E06000
00F0C000
00F0C000
0070C000
00798000
00798000
003B0000
003F0000
003E0000
001E0000
001E0000
001E0000
001F0000
001F0000
00378000
00378000
00378000
0063C000
0063C000
00C3C000
00C1E000
0181E000
0181E000
0300F000
0300F000
06007800
06007800
0E007800
3F83FF00
3F83FF00
00000000
00000000
00000000
00000000
00000000
00000000
00000000
00000000
ENDCHAR

STARTCHAR iso59
ENCODING 89
SWIDTH 480 0
DWIDTH 25 0
BBX 25 50 0 -6
BITMAP
00000000
00000000
00000000
00000000
00000000
00000000
3FE07F00
3FE07F00
0F800C00
07801C00
07801800
07801800
03C03000
03C03000
03C03000
01E06000
01E06000
01E06000
00F0C000
00F0C000
0070C000
00798000
00798000
00398000
003F0000
003F0000
001E0000
001E0000
001E0000
001E0000
001E0000
001E0000
001E0000
001E0000
001E0000
001E0000
001E0000
001E0000
001E0000
003F0000
00FFC000
00FFC000
00000000
00000000
00000000
00000000
00000000
00000000
00000000
00000000
ENDCHAR

STARTCHAR iso5A
ENCODING 90
SWIDTH 480 0
DWIDTH 25 0
BBX 25 50 0 -6
BITMAP
00000000
00000000
00000000
00000000
00000000
00000000
03FFFF00
03FFFF00
07F01E00
07C01E00
07803C00
0F003C00
0E007800
0C007800
1800F000
1801F000
0001E000
0003E000
0003C000
0007C000
00078000
000F0000
000F0000
001E0000
001E0000
003C0000
003C0000
00780000
00F80000
00F00000
01F00000
01E00000
03E00300
03C00300
07C00600
07800E00
0F001E00
0F003C00
1E007C00
1E01FC00
3FFFF800
3FFFF800
00000000
00000000
00000000
00000000
00000000
00000000
00000000
00000000
ENDCHAR

STARTCHAR iso5B
ENCODING 91
SWIDTH 480 0
DWIDTH 25 0
BBX 25 50 0 -6
BITMAP
00000000
00000000
00000000
00000000
001FFE00
001FFE00
00180000
00180000
00180000
00180000
00180000
00180000
00180000
00180000
00180000
00180000
00180000
00180000
00180000
00180000
00180000
00180000
00180000
00180000
00180000
00180000
00180000
00180000
00180000
00180000
00180000
00180000
00180000
00180000
00180000
00180000
00180000
00180000
00180000
00180000
00180000
00180000
00180000
00180000
001FFE00
001FFE00
00000000
00000000
00000000
00000000
ENDCHAR

STARTCHAR iso5C
ENCODING 92
SWIDTH 480 0
DWIDTH 25 0
BBX 25 50 0 -6
BITMAP
00000000
00000000
00000000
18000000
18000000
0C000000
0C000000
06000000
06000000
06000000
03000000
03000000
01800000
01800000
00C00000
00C00000
00C00000
00600000
00600000
00300000
00300000
00180000
00180000
00180000
000C0000
000C0000
00060000
00060000
00060000
00030000
00030000
00018000
00018000
0000C000
0000C000
0000C000
00006000
00006000
00003000
00003000
00001800
00001800
00001800
00000C00
00000C00
00000600
00000600
00000000
00000000
00000000
ENDCHAR

STARTCHAR iso5D
ENCODING 93
SWIDTH 480 0
DWIDTH 25 0
BBX 25 50 0 -6
BITMAP
00000000
00000000
00000000
00000000
1FFE0000
1FFE0000
00060000
00060000
00060000
00060000
00060000
00060000
00060000
00060000
00060000
00060000
00060000
00060000
00060000
00060000
00060000
00060000
00060000
00060000
00060000
00060000
00060000
00060000
00060000
00060000
00060000
00060000
00060000
00060000
00060000
00060000
00060000
00060000
00060000
00060000
00060000
00060000
00060000
00060000
1FFE0000
1FFE0000
00000000
00000000
00000000
00000000
ENDCHAR

STARTCHAR iso5E
ENCODING 94
SWIDTH 480 0
DWIDTH 25 0
BBX 25 50 0 -6
BITMAP
00000000
00000000
003F0000
007F8000
00FFC000
01E1E000
03807000
07003800
00000000
00000000
00000000
00000000
00000000
00000000
00000000
00000000
00000000
00000000
00000000
00000000
00000000
00000000
00000000
00000000
00000000
00000000
00000000
00000000
00000000
00000000
00000000
00000000
00000000
00000000
00000000
00000000
00000000
00000000
00000000
00000000
00000000
00000000
00000000
00000000
00000000
00000000
00000000
00000000
00000000
00000000
ENDCHAR

STARTCHAR iso5F
ENCODING 95
SWIDTH 480 0
DWIDTH 25 0
BBX 25 50 0 -6
BITMAP
00000000
00000000
00000000
00000000
00000000
00000000
00000000
00000000
00000000
00000000
00000000
00000000
00000000
00000000
00000000
00000000
00000000
00000000
00000000
00000000
00000000
00000000
00000000
00000000
00000000
00000000
00000000
00000000
00000000
00000000
00000000
00000000
00000000
00000000
00000000
00000000
00000000
00000000
00000000
00000000
00000000
00000000
00000000
00000000
00000000
00000000
00000000
7FFFFF80
7FFFFF80
00000000
ENDCHAR

STARTCHAR iso60
ENCODING 96
SWIDTH 480 0
DWIDTH 25 0
BBX 25 50 0 -6
BITMAP
00000000
00000000
00000000
00000600
00000C00
00001800
00003000
00003000
00007800
00007E00
00007E00
00007E00
00003E00
00001C00
00000000
00000000
00000000
00000000
00000000
00000000
00000000
00000000
00000000
00000000
00000000
00000000
00000000
00000000
00000000
00000000
00000000
00000000
00000000
00000000
00000000
00000000
00000000
00000000
00000000
00000000
00000000
00000000
00000000
00000000
00000000
00000000
00000000
00000000
00000000
00000000
ENDCHAR

STARTCHAR iso61
ENCODING 97
SWIDTH 480 0
DWIDTH 25 0
BBX 25 50 0 -6
BITMAP
00000000
00000000
00000000
00000000
00000000
00000000
00000000
00000000
00000000
00000000
00000000
00000000
00000000
00000000
00000000
00000000
00000000
00000000
007E0000
01FFC000
0781E000
0F00F000
0F007000
1F007000
1F007000
0E007000
00007000
00007000
001FF000
00FFF000
03E07000
07807000
0F007000
1E007000
1C007000
3C007000
3C007000
3C007000
3C00F100
1E03F300
1F0F7E00
0FFC7E00
07F03C00
00000000
00000000
00000000
00000000
00000000
00000000
00000000
ENDCHAR

STARTCHAR iso62
ENCODING 98
SWIDTH 480 0
DWIDTH 25 0
BBX 25 50 0 -6
BITMAP
00000000
00000000
00000000
00000000
00000000
00800000
03800000
3F800000
3F800000
07800000
03800000
03800000
03800000
03800000
03800000
03800000
03800000
03800000
0387C000
039FF000
03BFF800
03F87C00
03E03C00
03C01E00
03801E00
03800E00
03800F00
03800F00
03800F00
03800F00
03800F00
03800F00
03800F00
03800F00
03800F00
03800E00
03801E00
03801E00
03803C00
03C07800
03F0F800
033FE000
020F8000
00000000
00000000
00000000
00000000
00000000
00000000
00000000
ENDCHAR

STARTCHAR iso63
ENCODING 99
SWIDTH 480 0
DWIDTH 25 0
BBX 25 50 0 -6
BITMAP
00000000
00000000
00000000
00000000
00000000
00000000
00000000
00000000
00000000
00000000
00000000
00000000
00000000
00000000
00000000
00000000
00000000
00000000
001FC000
007FF000
01E07800
03C03C00
07807C00
07007C00
0F003C00
0E001800
0E000000
1E000000
1E000000
1E000000
1E000000
1E000000
1E000000
1E000000
1E000000
0E000200
0F000300
0F000600
07800E00
03C01C00
01F07800
00FFF000
003FC000
00000000
00000000
00000000
00000000
00000000
00000000
00000000
ENDCHAR

STARTCHAR iso64
ENCODING 100
SWIDTH 480 0
DWIDTH 25 0
BBX 25 50 0 -6
BITMAP
00000000
00000000
00000000
00000000
00000000
00000800
00007800
0003F800
0003F800
00007800
00003800
00003800
00003800
00003800
00003800
00003800
00003800
00003800
007C3800
01FF3800
03FFB800
0781F800
0F00F800
0E007800
1E003800
1C003800
1C003800
3C003800
3C003800
3C003800
3C003800
3C003800
3C003800
3C003800
3C003800
1C003800
1E003800
1E003800
0F007800
0F80FC00
07E3BF00
01FF3F00
007C3000
00000000
00000000
00000000
00000000
00000000
00000000
00000000
ENDCHAR

STARTCHAR iso65
ENCODING 101
SWIDTH 480 0
DWIDTH 25 0
BBX 25 50 0 -6
BITMAP
00000000
00000000
00000000
00000000
00000000
00000000
00000000
00000000
00000000
00000000
00000000
00000000
00000000
00000000
00000000
00000000
00000000
00000000
003F8000
00FFE000
01E0F000
03C03800
07803C00
07001C00
0F001E00
0E001E00
1E001E00
1E001E00
1FFFFE00
1FFFFE00
1C000000
1C000000
1C000000
1C000000
1E000000
1E000000
0F000600
0F000E00
07801C00
03C03800
01F0F000
00FFE000
003F8000
00000000
00000000
00000000
00000000
00000000
00000000
00000000
ENDCHAR

STARTCHAR iso66
ENCODING 102
SWIDTH 480 0
DWIDTH 25 0
BBX 25 50 0 -6
BITMAP
00000000
00000000
00000000
00000000
00000000
00000000
0001F800
0007FC00
000E3E00
001C1E00
001C0C00
001C0000
003C0000
00380000
00380000
00380000
00380000
00380000
0FFFFC00
0FFFFC00
00380000
00380000
00380000
00380000
00380000
00380000
00380000
00380000
00380000
00380000
00380000
00380000
00380000
00380000
00380000
00380000
00380000
00380000
00380000
007C0000
0FFFF000
0FFFF000
00000000
00000000
00000000
00000000
00000000
00000000
00000000
00000000
ENDCHAR

STARTCHAR iso67
ENCODING 103
SWIDTH 480 0
DWIDTH 25 0
BBX 25 50 0 -6
BITMAP
00000000
00000000
00000000
00000000
00000000
00000000
00000000
00000000
00000000
00000000
00000000
00000000
00000000
00000000
00000000
00000000
00000000
00000000
007E1E00
01FFBF00
03C1EF00
0780E600
07007000
0F007000
0E003800
0E003800
0E003800
0E003800
0F007000
07007000
0780E000
0381E000
01F7C000
03FF0000
07000000
0F000000
0F800000
07FC0000
03FFC000
03FFF800
0F03FC00
1E003E00
1C001E00
38000F00
38000F00
3C000E00
1E001E00
0FE1F800
01FFE000
00000000
ENDCHAR

STARTCHAR iso68
ENCODING 104
SWIDTH 480 0
DWIDTH 25 0
BBX 25 50 0 -6
BITMAP
00000000
00000000
00000000
00000000
00000000
01000000
07000000
3F000000
3F000000
0F000000
07000000
07000000
07000000
07000000
07000000
07000000
07000000
07000000
07078000
071FE000
0738F000
07607000
07C07800
07803800
07003800
07003800
07003800
07003800
07003800
07003800
07003800
07003800
07003800
07003800
07003800
07003800
07003800
07003800
07003800
0F807C00
3FE1FF00
3FE1FF00
00000000
00000000
00000000
00000000
00000000
00000000
00000000
00000000
ENDCHAR

STARTCHAR iso69
ENCODING 105
SWIDTH 480 0
DWIDTH 25 0
BBX 25 50 0 -6
BITMAP
00000000
00000000
00000000
00000000
00000000
00000000
000E0000
001F0000
001F0000
001F0000
000E0000
00000000
00000000
00000000
00000000
00000000
00000000
00000000
00060000
001E0000
03FE0000
03FE0000
001E0000
000E0000
000E0000
000E0000
000E0000
000E0000
000E0000
000E0000
000E0000
000E0000
000E0000
000E0000
000E0000
000E0000
000E0000
000E0000
000E0000
001F0000
03FFF800
03FFF800
00000000
00000000
00000000
00000000
00000000
00000000
00000000
00000000
ENDCHAR

STARTCHAR iso6A
ENCODING 106
SWIDTH 480 0
DWIDTH 25 0
BBX 25 50 0 -6
BITMAP
00000000
00000000
00000000
00000000
00000000
00000000
00000000
00038000
0007C000
0007C000
0007C000
00038000
00000000
00000000
00000000
00000000
00000000
00000000
00018000
00078000
01FF8000
01FF8000
00078000
00038000
00038000
00038000
00038000
00038000
00038000
00038000
00038000
00038000
00038000
00038000
00038000
00038000
00038000
00038000
00038000
00038000
00038000
00038000
00038000
00078000
03870000
07870000
078E0000
03FC0000
01F80000
00000000
ENDCHAR

STARTCHAR iso6B
ENCODING 107
SWIDTH 480 0
DWIDTH 25 0
BBX 25 50 0 -6
BITMAP
00000000
00000000
00000000
00000000
00000000
01000000
07000000
3F000000
3F000000
0F000000
07000000
07000000
07000000
07000000
07000000
07000000
07000000
07000000
0707FC00
0707FC00
0700C000
07018000
07018000
07030000
07060000
070E0000
070C0000
071E0000
073E0000
076F0000
07E70000
07C78000
07838000
0703C000
0701C000
0701E000
0700E000
0700F000
07007000
0F807800
3FE1FF00
3FE1FF00
00000000
00000000
00000000
00000000
00000000
00000000
00000000
00000000
ENDCHAR

STARTCHAR iso6C
ENCODING 108
SWIDTH 480 0
DWIDTH 25 0
BBX 25 50 0 -6
BITMAP
00000000
00000000
00000000
00000000
00000000
00060000
001E0000
03FE0000
03FE0000
001E0000
000E0000
000E0000
000E0000
000E0000
000E0000
000E0000
000E0000
000E0000
000E0000
000E0000
000E0000
000E0000
000E0000
000E0000
000E0000
000E0000
000E0000
000E0000
000E0000
000E0000
000E0000
000E0000
000E0000
000E0000
000E0000
000E0000
000E0000
000E0000
000E0000
001F0000
03FFF800
03FFF800
00000000
00000000
00000000
00000000
00000000
00000000
00000000
00000000
ENDCHAR

STARTCHAR iso6D
ENCODING 109
SWIDTH 480 0
DWIDTH 25 0
BBX 25 50 0 -6
BITMAP
00000000
00000000
00000000
00000000
00000000
00000000
00000000
00000000
00000000
00000000
00000000
00000000
00000000
00000000
00000000
00000000
00000000
00000000
02307000
0EF9F800
3FFFFC00
3F1F1C00
0E1E1C00
0E1E1C00
0E1C1C00
0E1C1C00
0E1C1C00
0E1C1C00
0E1C1C00
0E1C1C00
0E1C1C00
0E1C1C00
0E1C1C00
0E1C1C00
0E1C1C00
0E1C1C00
0E1C1C00
0E1C1C00
0E1C1C00
0E1C1C00
3F7F7F00
3F7F7F00
00000000
00000000
00000000
00000000
00000000
00000000
00000000
00000000
ENDCHAR

STARTCHAR iso6E
ENCODING 110
SWIDTH 480 0
DWIDTH 25 0
BBX 25 50 0 -6
BITMAP
00000000
00000000
00000000
00000000
00000000
00000000
00000000
00000000
00000000
00000000
00000000
00000000
00000000
00000000
00000000
00000000
00000000
00000000
01078000
071FE000
3F79F000
3FE07000
0FC07800
07803800
07003800
07003800
07003800
07003800
07003800
07003800
07003800
07003800
07003800
07003800
07003800
07003800
07003800
07003800
07003800
0F807C00
3FE1FF00
3FE1FF00
00000000
00000000
00000000
00000000
00000000
00000000
00000000
00000000
ENDCHAR

STARTCHAR iso6F
ENCODING 111
SWIDTH 480 0
DWIDTH 25 0
BBX 25 50 0 -6
BITMAP
00000000
00000000
00000000
00000000
00000000
00000000
00000000
00000000
00000000
00000000
00000000
00000000
00000000
00000000
00000000
00000000
00000000
00000000
003F0000
00FFC000
03C0F000
07807800
0F003C00
0F003C00
1E001E00
1E001E00
1C000E00
3C000F00
3C000F00
3C000F00
3C000F00
3C000F00
3C000F00
3C000F00
1C000E00
1E001E00
1E001E00
0F003C00
0F003C00
07807800
03C0F000
00FFC000
003F0000
00000000
00000000
00000000
00000000
00000000
00000000
00000000
ENDCHAR

STARTCHAR iso70
ENCODING 112
SWIDTH 480 0
DWIDTH 25 0
BBX 25 50 0 -6
BITMAP
00000000
00000000
00000000
00000000
00000000
00000000
00000000
00000000
00000000
00000000
00000000
00000000
00000000
00000000
00000000
00000000
00000000
00000000
0087C000
039FF000
3FB8F800
3FE03C00
07C01C00
03801E00
03800E00
03800E00
03800F00
03800F00
03800F00
03800F00
03800F00
03800F00
03800F00
03800F00
03800E00
03800E00
03801E00
03C01C00
03E03C00
03BCF800
039FF000
0387C000
03800000
03800000
03800000
03800000
07C00000
3FF80000
3FF80000
00000000
ENDCHAR

STARTCHAR iso71
ENCODING 113
SWIDTH 480 0
DWIDTH 25 0
BBX 25 50 0 -6
BITMAP
00000000
00000000
00000000
00000000
00000000
00000000
00000000
00000000
00000000
00000000
00000000
00000000
00000000
00000000
00000000
00000000
00000000
00000000
007C0800
01FF1800
03E3B800
0780F800
0F007800
0F003800
1E003800
1E003800
1C003800
3C003800
3C003800
3C003800
3C003800
3C003800
3C003800
3C003800
1C003800
1E003800
1E003800
0F007800
0F80F800
07E3B800
03FF3800
00FC3800
00003800
00003800
00003800
00003800
00007C00
0003FF00
0003FF00
00000000
ENDCHAR

STARTCHAR iso72
ENCODING 114
SWIDTH 480 0
DWIDTH 25 0
BBX 25 50 0 -6
BITMAP
00000000
00000000
00000000
00000000
00000000
00000000
00000000
00000000
00000000
00000000
00000000
00000000
00000000
00000000
00000000
00000000
00000000
00000000
00607C00
01E1FE00
1FE3FE00
1FE71E00
01EE0C00
00EC0000
00F80000
00F80000
00F00000
00F00000
00E00000
00E00000
00E00000
00E00000
00E00000
00E00000
00E00000
00E00000
00E00000
00E00000
00E00000
01F00000
1FFF0000
1FFF0000
00000000
00000000
00000000
00000000
00000000
00000000
00000000
00000000
ENDCHAR

STARTCHAR iso73
ENCODING 115
SWIDTH 480 0
DWIDTH 25 0
BBX 25 50 0 -6
BITMAP
00000000
00000000
00000000
00000000
00000000
00000000
00000000
00000000
00000000
00000000
00000000
00000000
00000000
00000000
00000000
00000000
00000000
00000000
003C1000
01FFB000
03C3F000
0700F000
07007800
0E003800
0E001800
0F000800
0F000000
07C00000
07F00000
03FE0000
00FFC000
003FF000
0007F800
0000F800
10003C00
18001C00
1C001C00
0E001C00
0F001C00
0FC03800
07F0F000
04FFE000
001F8000
00000000
00000000
00000000
00000000
00000000
00000000
00000000
ENDCHAR

STARTCHAR iso74
ENCODING 116
SWIDTH 480 0
DWIDTH 25 0
BBX 25 50 0 -6
BITMAP
00000000
00000000
00000000
00000000
00000000
00000000
00000000
00000000
00000000
00000000
00180000
00180000
00180000
00180000
00180000
00380000
00380000
00780000
01F80000
0FFFFC00
0FFFFC00
00380000
00380000
00380000
00380000
00380000
00380000
00380000
00380000
00380000
00380000
00380000
00380000
00380000
00380000
00380000
00380000
00380000
003C0400
001C0C00
001E3800
000FF000
0007C000
00000000
00000000
00000000
00000000
00000000
00000000
00000000
ENDCHAR

STARTCHAR iso75
ENCODING 117
SWIDTH 480 0
DWIDTH 25 0
BBX 25 50 0 -6
BITMAP
00000000
00000000
00000000
00000000
00000000
00000000
00000000
00000000
00000000
00000000
00000000
00000000
00000000
00000000
00000000
00000000
00000000
00000000
01000800
07003800
3F01F800
3F01F800
0F003800
07003800
07003800
07003800
07003800
07003800
07003800
07003800
07003800
07003800
07003800
07003800
07003800
07003800
07003800
07003800
07807800
03C0FC00
03E3BF00
01FF3F00
007C3000
00000000
00000000
00000000
00000000
00000000
00000000
00000000
ENDCHAR

STARTCHAR iso76
ENCODING 118
SWIDTH 480 0
DWIDTH 25 0
BBX 25 50 0 -6
BITMAP
00000000
00000000
00000000
00000000
00000000
00000000
00000000
00000000
00000000
00000000
00000000
00000000
00000000
00000000
00000000
00000000
00000000
00000000
00000000
3FE0FF00
3FE0FF00
0F801C00
07801800
07803000
03803000
03C03000
03C06000
01C06000
01E06000
01E0C000
00E0C000
00E0C000
00F18000
00718000
00718000
007B0000
003B0000
003B0000
003E0000
001E0000
001E0000
001C0000
000C0000
00000000
00000000
00000000
00000000
00000000
00000000
00000000
ENDCHAR

STARTCHAR iso77
ENCODING 119
SWIDTH 480 0
DWIDTH 25 0
BBX 25 50 0 -6
BITMAP
00000000
00000000
00000000
00000000
00000000
00000000
00000000
00000000
00000000
00000000
00000000
00000000
00000000
00000000
00000000
00000000
00000000
00000000
00000000
3F3F3F00
3F3F3F00
0E0E0C00
0E0E0C00
0E0E0C00
0E0E0C00
070E0C00
070F1800
070F1800
071F1800
071F1800
031B1800
039B9800
039BB000
03B3B000
03B3B000
01B1B000
01F1F000
01E1E000
01E1E000
01E1E000
00E0E000
00C0C000
00C0C000
00000000
00000000
00000000
00000000
00000000
00000000
00000000
ENDCHAR

STARTCHAR iso78
ENCODING 120
SWIDTH 480 0
DWIDTH 25 0
BBX 25 50 0 -6
BITMAP
00000000
00000000
00000000
00000000
00000000
00000000
00000000
00000000
00000000
00000000
00000000
00000000
00000000
00000000
00000000
00000000
00000000
00000000
00000000
1FF1FE00
1FF1FE00
03C07000
01C06000
01E0C000
00F0C000
00F18000
007B0000
003B0000
003E0000
001E0000
000E0000
001F0000
001F8000
00338000
0063C000
0061E000
00C1E000
0180F000
01807800
03007C00
3FC1FF00
3FC1FF00
00000000
00000000
00000000
00000000
00000000
00000000
00000000
00000000
ENDCHAR

STARTCHAR iso79
ENCODING 121
SWIDTH 480 0
DWIDTH 25 0
BBX 25 50 0 -6
BITMAP
00000000
00000000
00000000
00000000
00000000
00000000
00000000
00000000
00000000
00000000
00000000
00000000
00000000
00000000
00000000
00000000
00000000
00000000
00000000
3FE1FF00
3FE1FF00
07803800
07803000
03803000
03C06000
03C06000
01C06000
01C0C000
01E0C000
00E0C000
00E0C000
00F18000
00718000
00718000
007B0000
003B0000
003B0000
003E0000
001E0000
001C0000
001C0000
000C0000
00180000
00180000
00380000
0E300000
0F700000
0FE00000
07C00000
00000000
ENDCHAR

STARTCHAR iso7A
ENCODING 122
SWIDTH 480 0
DWIDTH 25 0
BBX 25 50 0 -6
BITMAP
00000000
00000000
00000000
00000000
00000000
00000000
00000000
00000000
00000000
00000000
00000000
00000000
00000000
00000000
00000000
00000000
00000000
00000000
00000000
07FFFE00
07FFFE00
07007C00
0E007800
0C00F000
0C01E000
0803E000
0003C000
00078000
000F0000
001F0000
001E0000
003C0000
00780000
00F80000
00F00200
01E00600
03C00600
03C00E00
07801C00
0F007C00
1FFFFC00
1FFFFC00
00000000
00000000
00000000
00000000
00000000
00000000
00000000
00000000
ENDCHAR

STARTCHAR iso7B
ENCODING 123
SWIDTH 480 0
DWIDTH 25 0
BBX 25 50 0 -6
BITMAP
00000000
00000000
00000000
00000600
00001C00
00003800
00007000
00007000
0000E000
0000E000
0000E000
0000E000
0000E000
0000E000
0000E000
0000E000
0000E000
0000E000
0000E000
0000E000
0000E000
0000E000
0001C000
0003C000
000F0000
000F0000
0003C000
0001C000
0000E000
0000E000
0000E000
0000E000
0000E000
0000E000
0000E000
0000E000
0000E000
0000E000
0000E000
0000E000
0000E000
0000E000
00007000
00007000
00003800
00001C00
00000600
00000000
00000000
00000000
ENDCHAR

STARTCHAR iso7C
ENCODING 124
SWIDTH 480 0
DWIDTH 25 0
BBX 25 50 0 -6
BITMAP
00000000
00000000
00000000
000C0000
000C0000
000C0000
000C0000
000C0000
000C0000
000C0000
000C0000
000C0000
000C0000
000C0000
000C0000
000C0000
000C0000
000C0000
000C0000
000C0000
000C0000
000C0000
000C0000
000C0000
000C0000
000C0000
000C0000
000C0000
000C0000
000C0000
000C0000
000C0000
000C0000
000C0000
000C0000
000C0000
000C0000
000C0000
000C0000
000C0000
000C0000
000C0000
000C0000
000C0000
000C0000
000C0000
000C0000
00000000
00000000
00000000
ENDCHAR

STARTCHAR iso7D
ENCODING 125
SWIDTH 480 0
DWIDTH 25 0
BBX 25 50 0 -6
BITMAP
00000000
00000000
00000000
18000000
0E000000
07000000
03800000
03800000
01C00000
01C00000
01C00000
01C00000
01C00000
01C00000
01C00000
01C00000
01C00000
01C00000
01C00000
01C00000
01C00000
01C00000
00E00000
00F00000
003C0000
003C0000
00F00000
00E00000
01C00000
01C00000
01C00000
01C00000
01C00000
01C00000
01C00000
01C00000
01C00000
01C00000
01C00000
01C00000
01C00000
01C00000
03800000
03800000
07000000
0E000000
18000000
00000000
00000000
00000000
ENDCHAR

STARTCHAR iso7E
ENCODING 126
SWIDTH 480 0
DWIDTH 25 0
BBX 25 50 0 -6
BITMAP
00000000
00000000
00000000
00000000
00000000
00000000
00000000
00000000
00000000
00000000
00000000
00000000
00000000
00000000
00000000
00000000
00000000
00000000
00000000
00000000
00000000
01E00000
07F80000
0FFE0200
1C7F8E00
101FFC00
0007F800
0001E000
00000000
00000000
00000000
00000000
00000000
00000000
00000000
00000000
00000000
00000000
00000000
00000000
00000000
00000000
00000000
00000000
00000000
00000000
00000000
00000000
00000000
00000000
ENDCHAR

STARTCHAR iso7F
ENCODING 127
SWIDTH 480 0
DWIDTH 25 0
BBX 25 50 0 -6
BITMAP
00000000
78787800
78787800
78787800
78787800
07878780
07878780
07878780
07878780
78787800
78787800
78787800
78787800
07878780
07878780
07878780
07878780
78787800
78787800
78787800
78787800
07878780
07878780
07878780
07878780
78787800
78787800
78787800
78787800
07878780
07878780
07878780
07878780
78787800
78787800
78787800
78787800
07878780
07878780
07878780
07878780
78787800
78787800
78787800
78787800
07878780
07878780
07878780
07878780
00000000
ENDCHAR

STARTCHAR iso80
ENCODING 128
SWIDTH 480 0
DWIDTH 25 0
BBX 25 50 0 -6
BITMAP
00000000
00000000
00000000
00000000
00000000
07F80000
0FFC0000
1C0E0000
18060000
18060000
18060000
18060000
1C0E0000
0FFC0000
0FFC0000
1C0E0000
18060000
18060000
18060000
18060000
1C0E0000
0FFC0000
07F80000
00000000
00000000
0007F800
000FFC00
001C0E00
00180600
00180600
00180600
00180600
00180600
00180600
00180600
00180600
00180600
00180600
00180600
00180600
001C0E00
000FFC00
0007F800
00000000
00000000
00000000
00000000
00000000
00000000
00000000
ENDCHAR

STARTCHAR iso81
ENCODING 129
SWIDTH 480 0
DWIDTH 25 0
BBX 25 50 0 -6
BITMAP
00000000
00000000
00000000
00000000
00000000
07F80000
0FFC0000
1C0E0000
18060000
18060000
18060000
18060000
1C0E0000
0FFC0000
0FFC0000
1C0E0000
18060000
18060000
18060000
18060000
1C0E0000
0FFC0000
07F80000
00000000
00000000
00006000
0000E000
0001E000
0003E000
00076000
00066000
00006000
00006000
00006000
00006000
00006000
00006000
00006000
00006000
00006000
00006000
0007FE00
0007FE00
00000000
00000000
00000000
00000000
00000000
00000000
00000000
ENDCHAR

STARTCHAR iso82
ENCODING 130
SWIDTH 480 0
DWIDTH 25 0
BBX 25 50 0 -6
BITMAP
00000000
00000000
00000000
00000000
00000000
07F80000
0FFC0000
1C0E0000
18060000
18060000
18060000
18060000
1C0E0000
0FFC0000
0FFC0000
1C0E0000
18060000
18060000
18060000
18060000
1C0E0000
0FFC0000
07F80000
00000000
00000000
0007F800
000FFC00
001C0E00
00180600
00180600
00180E00
00001C00
00003800
00007000
0000E000
0001C000
00038000
00070000
000E0000
001C0000
00180000
001FFE00
001FFE00
00000000
00000000
00000000
00000000
00000000
00000000
00000000
ENDCHAR

STARTCHAR iso83
ENCODING 131
SWIDTH 480 0
DWIDTH 25 0
BBX 25 50 0 -6
BITMAP
00000000
00000000
00000000
00000000
00000000
07F80000
0FFC0000
1C0E0000
18060000
18060000
18060000
18060000
1C0E0000
0FFC0000
0FFC0000
1C0E0000
18060000
18060000
18060000
18060000
1C0E0000
0FFC0000
07F80000
00000000
00000000
0007F800
000FFC00
001C0E00
00180600
00000600
00000600
00000600
00000E00
0001FC00
0001FC00
00000E00
00000600
00000600
00000600
00180600
001C0E00
000FFC00
0007F800
00000000
00000000
00000000
00000000
00000000
00000000
00000000
ENDCHAR

STARTCHAR iso84
ENCODING 132
SWIDTH 480 0
DWIDTH 25 0
BBX 25 50 0 -6
BITMAP
00000000
00000000
00000000
00000000
00000000
07F80000
0FFC0000
1C0E0000
18060000
18060000
18060000
18060000
1C0E0000
0FFC0000
0FFC0000
1C0E0000
18060000
18060000
18060000
18060000
1C0E0000
0FFC0000
07F80000
00000000
00000000
00006000
0000E000
0001E000
0003E000
00076000
000E6000
001C6000
00386000
00706000
00606000
00606000
00606000
007FF800
007FF800
00006000
00006000
00006000
00006000
00000000
00000000
00000000
00000000
00000000
00000000
00000000
ENDCHAR

STARTCHAR iso85
ENCODING 133
SWIDTH 480 0
DWIDTH 25 0
BBX 25 50 0 -6
BITMAP
00000000
00000000
00000000
00000000
00000000
07F80000
0FFC0000
1C0E0000
18060000
18060000
18060000
18060000
1C0E0000
0FFC0000
0FFC0000
1C0E0000
18060000
18060000
18060000
18060000
1C0E0000
0FFC0000
07F80000
00000000
00000000
001FFE00
001FFE00
00180000
00180000
00180000
00180000
00180000
00180000
001FF800
001FFC00
00000E00
00000600
00000600
00000600
00180600
001C0E00
000FFC00
0007F800
00000000
00000000
00000000
00000000
00000000
00000000
00000000
ENDCHAR

STARTCHAR iso86
ENCODING 134
SWIDTH 480 0
DWIDTH 25 0
BBX 25 50 0 -6
BITMAP
00000000
00000000
00000000
00000000
00000000
07F80000
0FFC0000
1C0E0000
18060000
18060000
18060000
18060000
1C0E0000
0FFC0000
0FFC0000
1C0E0000
18060000
18060000
18060000
18060000
1C0E0000
0FFC0000
07F80000
00000000
00000000
0007F800
000FFC00
001C0E00
00180600
00180000
00180000
00180000
00180000
001FF800
001FFC00
00180E00
00180600
00180600
00180600
00180600
001C0E00
000FFC00
0007F800
00000000
00000000
00000000
00000000
00000000
00000000
00000000
ENDCHAR

STARTCHAR iso87
ENCODING 135
SWIDTH 480 0
DWIDTH 25 0
BBX 25 50 0 -6
BITMAP
00000000
00000000
00000000
00000000
00000000
07F80000
0FFC0000
1C0E0000
18060000
18060000
18060000
18060000
1C0E0000
0FFC0000
0FFC0000
1C0E0000
18060000
18060000
18060000
18060000
1C0E0000
0FFC0000
07F80000
00000000
00000000
001FFE00
001FFE00
00000600
00000E00
00001C00
00001800
00003000
00003000
00006000
00006000
0000C000
0000C000
00018000
00018000
00018000
00018000
00018000
00018000
00000000
00000000
00000000
00000000
00000000
00000000
00000000
ENDCHAR

STARTCHAR iso88
ENCODING 136
SWIDTH 480 0
DWIDTH 25 0
BBX 25 50 0 -6
BITMAP
00000000
00000000
00000000
00000000
00000000
07F80000
0FFC0000
1C0E0000
18060000
18060000
18060000
18060000
1C0E0000
0FFC0000
0FFC0000
1C0E0000
18060000
18060000
18060000
18060000
1C0E0000
0FFC0000
07F80000
00000000
00000000
0007F800
000FFC00
001C0E00
00180600
00180600
00180600
00180600
001C0E00
000FFC00
000FFC00
001C0E00
00180600
00180600
00180600
00180600
001C0E00
000FFC00
0007F800
00000000
00000000
00000000
00000000
00000000
00000000
00000000
ENDCHAR

STARTCHAR iso89
ENCODING 137
SWIDTH 480 0
DWIDTH 25 0
BBX 25 50 0 -6
BITMAP
00000000
00000000
00000000
00000000
00000000
07F80000
0FFC0000
1C0E0000
18060000
18060000
18060000
18060000
1C0E0000
0FFC0000
0FFC0000
1C0E0000
18060000
18060000
18060000
18060000
1C0E0000
0FFC0000
07F80000
00000000
00000000
0007F800
000FFC00
001C0E00
00180600
00180600
00180600
00180600
001C0600
000FFE00
0007FE00
00000600
00000600
00000600
00000600
00180600
001C0E00
000FFC00
0007F800
00000000
00000000
00000000
00000000
00000000
00000000
00000000
ENDCHAR

STARTCHAR iso8A
ENCODING 138
SWIDTH 480 0
DWIDTH 25 0
BBX 25 50 0 -6
BITMAP
00000000
00000000
00000000
00000000
00000000
07F80000
0FFC0000
1C0E0000
18060000
18060000
18060000
18060000
1C0E0000
0FFC0000
0FFC0000
1C0E0000
18060000
18060000
18060000
18060000
1C0E0000
0FFC0000
0FF80000
00000000
00000000
0001E000
0001E000
00033000
00033000
00061800
00061800
000C0C00
000C0C00
00180600
00180600
001FFE00
001FFE00
00180600
00180600
00180600
00180600
00180600
00180600
00000000
00000000
00000000
00000000
00000000
00000000
00000000
ENDCHAR

STARTCHAR iso8B
ENCODING 139
SWIDTH 480 0
DWIDTH 25 0
BBX 25 50 0 -6
BITMAP
00000000
00000000
00000000
00000000
00000000
07F80000
0FFC0000
1C0E0000
18060000
18060000
18060000
18060000
1C0E0000
0FFC0000
0FFC0000
1C0E0000
18060000
18060000
18060000
18060000
1C0E0000
0FFC0000
07F80000
00000000
00000000
001FF800
001FFC00
00060E00
00060600
00060600
00060600
00060600
00060E00
0007FC00
0007FC00
00060E00
00060600
00060600
00060600
00060600
00060E00
001FFC00
001FF800
00000000
00000000
00000000
00000000
00000000
00000000
00000000
ENDCHAR

STARTCHAR iso8C
ENCODING 140
SWIDTH 480 0
DWIDTH 25 0
BBX 25 50 0 -6
BITMAP
00000000
00000000
00000000
00000000
00000000
07F80000
0FFC0000
1C0E0000
18060000
18060000
18060000
18060000
1C0E0000
0FFC0000
0FFC0000
1C0E0000
18060000
18060000
18060000
18060000
1C0E0000
0FFC0000
07F80000
00000000
00000000
0007F800
000FFC00
001C0E00
00180600
00180600
00180600
00180000
00180000
00180000
00180000
00180000
00180000
00180000
00180000
00180600
001C0E00
000FFC00
0007F800
00000000
00000000
00000000
00000000
00000000
00000000
00000000
ENDCHAR

STARTCHAR iso8D
ENCODING 141
SWIDTH 480 0
DWIDTH 25 0
BBX 25 50 0 -6
BITMAP
00000000
00000000
00000000
00000000
00000000
07F80000
0FFC0000
1C0E0000
18060000
18060000
18060000
18060000
1C0E0000
0FFC0000
0FFC0000
1C0E0000
18060000
18060000
18060000
18060000
1C0E0000
0FFC0000
07F80000
00000000
00000000
001FE000
001FF000
00183800
00181C00
00180E00
00180600
00180600
00180600
00180600
00180600
00180600
00180600
00180600
00180E00
00181C00
00183800
001FF000
001FE000
00000000
00000000
00000000
00000000
00000000
00000000
00000000
ENDCHAR

STARTCHAR iso8E
ENCODING 142
SWIDTH 480 0
DWIDTH 25 0
BBX 25 50 0 -6
BITMAP
00000000
00000000
00000000
00000000
00000000
07F80000
0FFC0000
1C0E0000
18060000
18060000
18060000
18060000
1C0E0000
0FFC0000
0FFC0000
1C0E0000
18060000
18060000
18060000
18060000
1C0E0000
0FFC0000
07F80000
00000000
00000000
001FFE00
001FFE00
00180000
00180000
00180000
00180000
00180000
00180000
001FF800
001FF800
00180000
00180000
00180000
00180000
00180000
00180000
001FFE00
001FFE00
00000000
00000000
00000000
00000000
00000000
00000000
00000000
ENDCHAR

STARTCHAR iso8F
ENCODING 143
SWIDTH 480 0
DWIDTH 25 0
BBX 25 50 0 -6
BITMAP
00000000
00000000
00000000
00000000
00000000
07F80000
0FFC0000
1C0E0000
18060000
18060000
18060000
18060000
1C0E0000
0FFC0000
0FFC0000
1C0E0000
18060000
18060000
18060000
18060000
1C0E0000
0FFC0000
07F80000
00000000
00000000
001FFE00
001FFE00
00180000
00180000
00180000
00180000
00180000
00180000
001FF800
001FF800
00180000
00180000
00180000
00180000
00180000
00180000
00180000
00180000
00000000
00000000
00000000
00000000
00000000
00000000
00000000
ENDCHAR

STARTCHAR iso90
ENCODING 144
SWIDTH 480 0
DWIDTH 25 0
BBX 25 50 0 -6
BITMAP
00000000
00000000
00000000
00000000
00000000
07F80000
0FFC0000
1C0E0000
18060000
18060000
18060000
18060000
1C060000
0FFE0000
07FE0000
00060000
00060000
00060000
00060000
18060000
1C0E0000
0FFC0000
07F80000
00000000
00000000
0007F800
000FFC00
001C0E00
00180600
00180600
00180600
00180600
00180600
00180600
00180600
00180600
00180600
00180600
00180600
00180600
001C0E00
000FFC00
0007F800
00000000
00000000
00000000
00000000
00000000
00000000
00000000
ENDCHAR

STARTCHAR iso91
ENCODING 145
SWIDTH 480 0
DWIDTH 25 0
BBX 25 50 0 -6
BITMAP
00000000
00000000
00000000
00000000
00000000
07F80000
0FFC0000
1C0E0000
18060000
18060000
18060000
18060000
1C060000
0FFE0000
07FE0000
00060000
00060000
00060000
00060000
18060000
1C0E0000
0FFC0000
07F80000
00000000
00000000
00006000
0000E000
0001E000
0003E000
00076000
00066000
00006000
00006000
00006000
00006000
00006000
00006000
00006000
00006000
00006000
00006000
0007FE00
0007FE00
00000000
00000000
00000000
00000000
00000000
00000000
00000000
ENDCHAR

STARTCHAR iso92
ENCODING 146
SWIDTH 480 0
DWIDTH 25 0
BBX 25 50 0 -6
BITMAP
00000000
00000000
00000000
00000000
00000000
07F80000
0FFC0000
1C0E0000
18060000
18060000
18060000
18060000
1C060000
0FFE0000
07FE0000
00060000
00060000
00060000
00060000
18060000
1C0E0000
0FFC0000
07F80000
00000000
00000000
0007F800
000FFC00
001C0E00
00180600
00180600
00180E00
00001C00
00003800
00007000
0000E000
0001C000
00038000
00070000
000E0000
001C0000
00180000
001FFE00
001FFE00
00000000
00000000
00000000
00000000
00000000
00000000
00000000
ENDCHAR

STARTCHAR iso93
ENCODING 147
SWIDTH 480 0
DWIDTH 25 0
BBX 25 50 0 -6
BITMAP
00000000
00000000
00000000
00000000
00000000
07F80000
0FFC0000
1C0E0000
18060000
18060000
18060000
18060000
1C060000
0FFE0000
07FE0000
00060000
00060000
00060000
00060000
18060000
1C0E0000
0FFC0000
07F80000
00000000
00000000
0007F800
000FFC00
001C0E00
00180600
00000600
00000600
00000600
00000E00
0001FC00
0001FC00
00000E00
00000600
00000600
00000600
00180600
001C0E00
000FFC00
0007F800
00000000
00000000
00000000
00000000
00000000
00000000
00000000
ENDCHAR

STARTCHAR iso94
ENCODING 148
SWIDTH 480 0
DWIDTH 25 0
BBX 25 50 0 -6
BITMAP
00000000
00000000
00000000
00000000
00000000
07F80000
0FFC0000
1C0E0000
18060000
18060000
18060000
18060000
1C060000
0FFE0000
07FE0000
00060000
00060000
00060000
00060000
18060000
1C0E0000
0FFC0000
07F80000
00000000
00000000
00006000
0000E000
0001E000
0003E000
00076000
000E6000
001C6000
00386000
00706000
00606000
00606000
00606000
007FF800
007FF800
00006000
00006000
00006000
00006000
00000000
00000000
00000000
00000000
00000000
00000000
00000000
ENDCHAR

STARTCHAR iso95
ENCODING 149
SWIDTH 480 0
DWIDTH 25 0
BBX 25 50 0 -6
BITMAP
00000000
00000000
00000000
00000000
00000000
07F80000
0FFC0000
1C0E0000
18060000
18060000
18060000
18060000
1C060000
0FFE0000
07FE0000
00060000
00060000
00060000
00060000
18060000
1C0E0000
0FFC0000
07F80000
00000000
00000000
001FFE00
001FFE00
00180000
00180000
00180000
00180000
00180000
00180000
001FF800
001FFC00
00000E00
00000600
00000600
00000600
00180600
001C0E00
000FFC00
0007F800
00000000
00000000
00000000
00000000
00000000
00000000
00000000
ENDCHAR

STARTCHAR iso96
ENCODING 150
SWIDTH 480 0
DWIDTH 25 0
BBX 25 50 0 -6
BITMAP
00000000
00000000
00000000
00000000
00000000
07F80000
0FFC0000
1C0E0000
18060000
18060000
18060000
18060000
1C060000
0FFE0000
07FE0000
00060000
00060000
00060000
00060000
18060000
1C0E0000
0FFC0000
07F80000
00000000
00000000
0007F800
000FFC00
001C0E00
00180600
00180000
00180000
00180000
00180000
001FF800
001FFC00
00180E00
00180600
00180600
00180600
00180600
001C0E00
000FFC00
0007F800
00000000
00000000
00000000
00000000
00000000
00000000
00000000
ENDCHAR

STARTCHAR iso97
ENCODING 151
SWIDTH 480 0
DWIDTH 25 0
BBX 25 50 0 -6
BITMAP
00000000
00000000
00000000
00000000
00000000
07F80000
0FFC0000
1C0E0000
18060000
18060000
18060000
18060000
1C060000
0FFE0000
07FE0000
00060000
00060000
00060000
00060000
18060000
1C0E0000
0FFC0000
07F80000
00000000
00000000
001FFE00
001FFE00
00000600
00000600
00000C00
00001C00
00003800
00003000
00006000
00006000
0000C000
0000C000
00018000
00018000
00018000
00018000
00018000
00018000
00000000
00000000
00000000
00000000
00000000
00000000
00000000
ENDCHAR

STARTCHAR iso98
ENCODING 152
SWIDTH 480 0
DWIDTH 25 0
BBX 25 50 0 -6
BITMAP
00000000
00000000
00000000
00000000
00000000
07F80000
0FFC0000
1C0E0000
18060000
18060000
18060000
18060000
1C060000
0FFE0000
07FE0000
00060000
00060000
00060000
00060000
18060000
1C0E0000
0FFC0000
07F80000
00000000
00000000
0007F800
000FFC00
001C0E00
00180600
00180600
00180600
00180600
001C0E00
000FFC00
000FFC00
001C0E00
00180600
00180600
00180600
00180600
001C0E00
000FFC00
0007F800
00000000
00000000
00000000
00000000
00000000
00000000
00000000
ENDCHAR

STARTCHAR iso99
ENCODING 153
SWIDTH 480 0
DWIDTH 25 0
BBX 25 50 0 -6
BITMAP
00000000
00000000
00000000
00000000
00000000
07F80000
0FFC0000
1C0E0000
18060000
18060000
18060000
18060000
1C060000
0FFE0000
07FE0000
00060000
00060000
00060000
00060000
18060000
1C0E0000
0FFC0000
07F80000
00000000
00000000
0007F800
000FFC00
001C0E00
00180600
00180600
00180600
00180600
001C0600
000FFE00
0007FE00
00000600
00000600
00000600
00000600
00180600
001C0E00
000FFC00
0007F800
00000000
00000000
00000000
00000000
00000000
00000000
00000000
ENDCHAR

STARTCHAR iso9A
ENCODING 154
SWIDTH 480 0
DWIDTH 25 0
BBX 25 50 0 -6
BITMAP
00000000
00000000
00000000
00000000
00000000
07F80000
0FFC0000
1C0E0000
18060000
18060000
18060000
18060000
1C060000
0FFE0000
07FE0000
00060000
00060000
00060000
00060000
18060000
1C0E0000
0FFC0000
07F80000
00000000
00000000
0001E000
0001E000
00033000
00033000
00061800
00061800
000C0C00
000C0C00
00180600
00180600
001FFE00
001FFE00
00180600
00180600
00180600
00180600
00180600
00180600
00000000
00000000
00000000
00000000
00000000
00000000
00000000
ENDCHAR

STARTCHAR iso9B
ENCODING 155
SWIDTH 480 0
DWIDTH 25 0
BBX 25 50 0 -6
BITMAP
00000000
00000000
00000000
00000000
00000000
07F80000
0FFC0000
1C0E0000
18060000
18060000
18060000
18060000
1C060000
0FFE0000
07FE0000
00060000
00060000
00060000
00060000
18060000
1C0E0000
0FFC0000
07F80000
00000000
00000000
001FF800
001FFC00
00060E00
00060600
00060600
00060600
00060600
00060E00
0007FC00
0007FC00
00060E00
00060600
00060600
00060600
00060600
00060E00
001FFC00
001FF800
00000000
00000000
00000000
00000000
00000000
00000000
00000000
ENDCHAR

STARTCHAR iso9C
ENCODING 156
SWIDTH 480 0
DWIDTH 25 0
BBX 25 50 0 -6
BITMAP
00000000
00000000
00000000
00000000
00000000
07F80000
0FFC0000
1C0E0000
18060000
18060000
18060000
18060000
1C060000
0FFE0000
07FE0000
00060000
00060000
00060000
00060000
18060000
1C0E0000
0FFC0000
07F80000
00000000
00000000
0007F800
000FFC00
001C0E00
00180600
00180600
00180600
00180000
00180000
00180000
00180000
00180000
00180000
00180000
00180000
00180600
001C0E00
000FFC00
0007F800
00000000
00000000
00000000
00000000
00000000
00000000
00000000
ENDCHAR

STARTCHAR iso9D
ENCODING 157
SWIDTH 480 0
DWIDTH 25 0
BBX 25 50 0 -6
BITMAP
00000000
00000000
00000000
00000000
00000000
07F80000
0FFC0000
1C0E0000
18060000
18060000
18060000
18060000
1C060000
0FFE0000
07FE0000
00060000
00060000
00060000
00060000
18060000
1C0E0000
0FFC0000
07F80000
00000000
00000000
001FE000
001FF000
00183800
00181C00
00180E00
00180600
00180600
00180600
00180600
00180600
00180600
00180600
00180600
00180E00
00181C00
00183800
001FF000
001FE000
00000000
00000000
00000000
00000000
00000000
00000000
00000000
ENDCHAR

STARTCHAR iso9E
ENCODING 158
SWIDTH 480 0
DWIDTH 25 0
BBX 25 50 0 -6
BITMAP
00000000
00000000
00000000
00000000
00000000
07F80000
0FFC0000
1C0E0000
18060000
18060000
18060000
18060000
1C060000
0FFE0000
07FE0000
00060000
00060000
00060000
00060000
18060000
1C0E0000
0FFC0000
07F80000
00000000
00000000
001FFE00
001FFE00
00180000
00180000
00180000
00180000
00180000
00180000
001FF800
001FF800
00180000
00180000
00180000
00180000
00180000
00180000
001FFE00
001FFE00
00000000
00000000
00000000
00000000
00000000
00000000
00000000
ENDCHAR

STARTCHAR iso9F
ENCODING 159
SWIDTH 480 0
DWIDTH 25 0
BBX 25 50 0 -6
BITMAP
00000000
00000000
00000000
00000000
00000000
07F80000
0FFC0000
1C0E0000
18060000
18060000
18060000
18060000
1C060000
0FFE0000
07FE0000
00060000
00060000
00060000
00060000
18060000
1C0E0000
0FFC0000
07F80000
00000000
00000000
001FFE00
001FFE00
00180000
00180000
00180000
00180000
00180000
00180000
001FF800
001FF800
00180000
00180000
00180000
00180000
00180000
00180000
00180000
00180000
00000000
00000000
00000000
00000000
00000000
00000000
00000000
ENDCHAR

STARTCHAR isoA0
ENCODING 160
SWIDTH 480 0
DWIDTH 25 0
BBX 25 50 0 -6
BITMAP
00000000
00000000
00000000
00000000
00000000
01E00000
01E00000
03300000
03300000
06180000
06180000
0C0C0000
0C0C0000
18060000
18060000
1FFE0000
1FFE0000
18060000
18060000
18060000
18060000
18060000
18060000
00000000
00000000
0007F800
000FFC00
001C0E00
00180600
00180600
00180600
00180600
00180600
00180600
00180600
00180600
00180600
00180600
00180600
00180600
001C0E00
000FFC00
0007F800
00000000
00000000
00000000
00000000
00000000
00000000
00000000
ENDCHAR

STARTCHAR isoA1
ENCODING 161
SWIDTH 480 0
DWIDTH 25 0
BBX 25 50 0 -6
BITMAP
00000000
00000000
00000000
00000000
00000000
01E00000
01E00000
03300000
03300000
06180000
06180000
0C0C0000
0C0C0000
18060000
18060000
1FFE0000
1FFE0000
18060000
18060000
18060000
18060000
18060000
18060000
00000000
00000000
00006000
0000E000
0001E000
0003E000
00076000
00066000
00006000
00006000
00006000
00006000
00006000
00006000
00006000
00006000
00006000
00006000
0007FE00
0007FE00
00000000
00000000
00000000
00000000
00000000
00000000
00000000
ENDCHAR

STARTCHAR isoA2
ENCODING 162
SWIDTH 480 0
DWIDTH 25 0
BBX 25 50 0 -6
BITMAP
00000000
00000000
00000000
00000000
00000000
01E00000
01E00000
03300000
03300000
06180000
06180000
0C0C0000
0C0C0000
18060000
18060000
1FFE0000
1FFE0000
18060000
18060000
18060000
18060000
18060000
18060000
00000000
00000000
0007F800
000FFC00
001C0E00
00180600
00180600
00180E00
00001C00
00003800
00007000
0000E000
0001C000
00038000
00070000
000E0000
001C0000
00180000
001FFE00
001FFE00
00000000
00000000
00000000
00000000
00000000
00000000
00000000
ENDCHAR

STARTCHAR isoA3
ENCODING 163
SWIDTH 480 0
DWIDTH 25 0
BBX 25 50 0 -6
BITMAP
00000000
00000000
00000000
00000000
00000000
01E00000
01E00000
03300000
03300000
06180000
06180000
0C0C0000
0C0C0000
18060000
18060000
1FFE0000
1FFE0000
18060000
18060000
18060000
18060000
18060000
18060000
00000000
00000000
0007F800
000FFC00
001C0E00
00180600
00000600
00000600
00000600
00000E00
0001FC00
0001FC00
00000E00
00000600
00000600
00000600
00180600
001C0E00
000FFC00
0007F800
00000000
00000000
00000000
00000000
00000000
00000000
00000000
ENDCHAR

STARTCHAR isoA4
ENCODING 164
SWIDTH 480 0
DWIDTH 25 0
BBX 25 50 0 -6
BITMAP
00000000
00000000
00000000
00000000
00000000
01E00000
01E00000
03300000
03300000
06180000
06180000
0C0C0000
0C0C0000
18060000
18060000
1FFE0000
1FFE0000
18060000
18060000
18060000
18060000
18060000
18060000
00000000
00000000
00006000
0000E000
0001E000
0003E000
00076000
000E6000
001C6000
00386000
00706000
00606000
00606000
00606000
007FF800
007FF800
00006000
00006000
00006000
00006000
00000000
00000000
00000000
00000000
00000000
00000000
00000000
ENDCHAR

STARTCHAR isoA5
ENCODING 165
SWIDTH 480 0
DWIDTH 25 0
BBX 25 50 0 -6
BITMAP
00000000
00000000
00000000
00000000
00000000
01E00000
01E00000
03300000
03300000
06180000
06180000
0C0C0000
0C0C0000
18060000
18060000
1FFE0000
1FFE0000
18060000
18060000
18060000
18060000
18060000
18060000
00000000
00000000
001FFE00
001FFE00
00180000
00180000
00180000
00180000
00180000
00180000
001FF800
001FFC00
00000E00
00000600
00000600
00000600
00180600
001C0E00
000FFC00
0007F800
00000000
00000000
00000000
00000000
00000000
00000000
00000000
ENDCHAR

STARTCHAR isoA6
ENCODING 166
SWIDTH 480 0
DWIDTH 25 0
BBX 25 50 0 -6
BITMAP
00000000
00000000
00000000
00000000
00000000
01E00000
01E00000
03300000
03300000
06180000
06180000
0C0C0000
0C0C0000
18060000
18060000
1FFE0000
1FFE0000
18060000
18060000
18060000
18060000
18060000
18060000
00000000
00000000
0007F800
000FFC00
001C0E00
00180600
00180000
00180000
00180000
00180000
001FF800
001FFC00
00180E00
00180600
00180600
00180600
00180600
001C0E00
000FFC00
0007F800
00000000
00000000
00000000
00000000
00000000
00000000
00000000
ENDCHAR

STARTCHAR isoA7
ENCODING 167
SWIDTH 480 0
DWIDTH 25 0
BBX 25 50 0 -6
BITMAP
00000000
00000000
00000000
00000000
00000000
01E00000
01E00000
03300000
03300000
06180000
06180000
0C0C0000
0C0C0000
18060000
18060000
1FFE0000
1FFE0000
18060000
18060000
18060000
18060000
18060000
18060000
00000000
00000000
001FFE00
001FFE00
00000600
00000600
00000C00
00001C00
00001800
00003000
00007000
00006000
0000C000
0000C000
00018000
00018000
00018000
00018000
00018000
00018000
00000000
00000000
00000000
00000000
00000000
00000000
00000000
ENDCHAR

STARTCHAR isoA8
ENCODING 168
SWIDTH 480 0
DWIDTH 25 0
BBX 25 50 0 -6
BITMAP
00000000
00000000
00000000
00000000
00000000
01E00000
01E00000
03300000
03300000
06180000
06180000
0C0C0000
0C0C0000
18060000
18060000
1FFE0000
1FFE0000
18060000
18060000
18060000
18060000
18060000
18060000
00000000
00000000
0007F800
000FFC00
001C0E00
00180600
00180600
00180600
00180600
001C0E00
000FFC00
000FFC00
001C0E00
00180600
00180600
00180600
00180600
001C0E00
000FFC00
0007F800
00000000
00000000
00000000
00000000
00000000
00000000
00000000
ENDCHAR

STARTCHAR isoA9
ENCODING 169
SWIDTH 480 0
DWIDTH 25 0
BBX 25 50 0 -6
BITMAP
00000000
00000000
00000000
00000000
00000000
01E00000
01E00000
03300000
03300000
06180000
06180000
0C0C0000
0C0C0000
18060000
18060000
1FFE0000
1FFE0000
18060000
18060000
18060000
18060000
18060000
18060000
00000000
00000000
0007F800
000FFC00
001C0E00
00180600
00180600
00180600
00180600
001C0600
000FFE00
0007FE00
00000600
00000600
00000600
00000600
00180600
001C0E00
000FFC00
0007F800
00000000
00000000
00000000
00000000
00000000
00000000
00000000
ENDCHAR

STARTCHAR isoAA
ENCODING 170
SWIDTH 480 0
DWIDTH 25 0
BBX 25 50 0 -6
BITMAP
00000000
00000000
00000000
00000000
00000000
01E00000
01E00000
03300000
03300000
06180000
06180000
0C0C0000
0C0C0000
18060000
18060000
1FFE0000
1FFE0000
18060000
18060000
18060000
18060000
18060000
18060000
00000000
00000000
0001E000
0001E000
00033000
00033000
00061800
00061800
000C0C00
000C0C00
00180600
00180600
001FFE00
001FFE00
00180600
00180600
00180600
00180600
00180600
00180600
00000000
00000000
00000000
00000000
00000000
00000000
00000000
ENDCHAR

STARTCHAR isoAB
ENCODING 171
SWIDTH 480 0
DWIDTH 25 0
BBX 25 50 0 -6
BITMAP
00000000
00000000
00000000
00000000
00000000
01E00000
01E00000
03300000
03300000
06180000
06180000
0C0C0000
0C0C0000
18060000
18060000
1FFE0000
1FFE0000
18060000
18060000
18060000
18060000
18060000
18060000
00000000
00000000
001FF800
001FFC00
00060E00
00060600
00060600
00060600
00060600
00060E00
0007FC00
0007FC00
00060600
00060600
00060600
00060600
00060600
00060E00
001FFC00
001FF800
00000000
00000000
00000000
00000000
00000000
00000000
00000000
ENDCHAR

STARTCHAR isoAC
ENCODING 172
SWIDTH 480 0
DWIDTH 25 0
BBX 25 50 0 -6
BITMAP
00000000
00000000
00000000
00000000
00000000
01E00000
01E00000
03300000
03300000
06180000
06180000
0C0C0000
0C0C0000
18060000
18060000
1FFE0000
1FFE0000
18060000
18060000
18060000
18060000
18060000
18060000
00000000
00000000
0007F800
000FFC00
001C0E00
00180600
00180600
00180600
00180000
00180000
00180000
00180000
00180000
00180000
00180000
00180000
00180600
001C0E00
000FFC00
0007F800
00000000
00000000
00000000
00000000
00000000
00000000
00000000
ENDCHAR

STARTCHAR isoAD
ENCODING 173
SWIDTH 480 0
DWIDTH 25 0
BBX 25 50 0 -6
BITMAP
00000000
00000000
00000000
00000000
00000000
01E00000
01E00000
03300000
03300000
06180000
06180000
0C0C0000
0C0C0000
18060000
18060000
1FFE0000
1FFE0000
18060000
18060000
18060000
18060000
18060000
18060000
00000000
00000000
001FE000
001FF000
00183800
00181C00
00180E00
00180600
00180600
00180600
00180600
00180600
00180600
00180600
00180600
00180E00
00181C00
00183800
001FF000
001FE000
00000000
00000000
00000000
00000000
00000000
00000000
00000000
ENDCHAR

STARTCHAR isoAE
ENCODING 174
SWIDTH 480 0
DWIDTH 25 0
BBX 25 50 0 -6
BITMAP
00000000
00000000
00000000
00000000
00000000
01E00000
01E00000
03300000
03300000
06180000
06180000
0C0C0000
0C0C0000
18060000
18060000
1FFE0000
1FFE0000
18060000
18060000
18060000
18060000
18060000
18060000
00000000
00000000
001FFE00
001FFE00
00180000
00180000
00180000
00180000
00180000
00180000
001FF800
001FF800
00180000
00180000
00180000
00180000
00180000
00180000
001FFE00
001FFE00
00000000
00000000
00000000
00000000
00000000
00000000
00000000
ENDCHAR

STARTCHAR isoAF
ENCODING 175
SWIDTH 480 0
DWIDTH 25 0
BBX 25 50 0 -6
BITMAP
00000000
00000000
00000000
00000000
00000000
01E00000
01E00000
03300000
03300000
06180000
06180000
0C0C0000
0C0C0000
18060000
18060000
1FFE0000
1FFE0000
18060000
18060000
18060000
18060000
18060000
18060000
00000000
00000000
001FFE00
001FFE00
00180000
00180000
00180000
00180000
00180000
00180000
001FF800
001FF800
00180000
00180000
00180000
00180000
00180000
00180000
00180000
00180000
00000000
00000000
00000000
00000000
00000000
00000000
00000000
ENDCHAR

STARTCHAR isoB0
ENCODING 176
SWIDTH 480 0
DWIDTH 25 0
BBX 25 50 0 -6
BITMAP
00000000
00000000
00000000
00000000
00000000
1FF80000
1FFC0000
060E0000
06060000
06060000
06060000
06060000
060E0000
07FC0000
07FC0000
060E0000
06060000
06060000
06060000
06060000
06060000
1FF80000
1FF80000
00000000
00000000
0007F800
000FFC00
001C0E00
00180600
00180600
00180600
00180600
00180600
00180600
00180600
00180600
00180600
00180600
00180600
00180600
001C0E00
000FFC00
0007F800
00000000
00000000
00000000
00000000
00000000
00000000
00000000
ENDCHAR

STARTCHAR isoB1
ENCODING 177
SWIDTH 480 0
DWIDTH 25 0
BBX 25 50 0 -6
BITMAP
00000000
00000000
00000000
00000000
00000000
1FF80000
1FFC0000
060E0000
06060000
06060000
06060000
06060000
060E0000
07FC0000
07FC0000
060E0000
06060000
06060000
06060000
06060000
060E0000
1FFC0000
1FF80000
00000000
00000000
00006000
0000E000
0001E000
0003E000
00076000
00066000
00006000
00006000
00006000
00006000
00006000
00006000
00006000
00006000
00006000
00006000
0007FE00
0007FE00
00000000
00000000
00000000
00000000
00000000
00000000
00000000
ENDCHAR

STARTCHAR isoB2
ENCODING 178
SWIDTH 480 0
DWIDTH 25 0
BBX 25 50 0 -6
BITMAP
00000000
00000000
00000000
00000000
00000000
1FF80000
1FFC0000
060E0000
06060000
06060000
06060000
06060000
060E0000
07FC0000
07FC0000
060E0000
06060000
06060000
06060000
06060000
060E0000
1FFC0000
1FF80000
00000000
00000000
0007F800
000FFC00
001C0E00
00180600
00180600
00180E00
00001C00
00003800
00007000
0000E000
0001C000
00038000
00070000
000E0000
001C0000
00180000
001FFE00
001FFE00
00000000
00000000
00000000
00000000
00000000
00000000
00000000
ENDCHAR

STARTCHAR isoB3
ENCODING 179
SWIDTH 480 0
DWIDTH 25 0
BBX 25 50 0 -6
BITMAP
00000000
00000000
00000000
00000000
00000000
1FF80000
1FFC0000
060E0000
06060000
06060000
06060000
06060000
060E0000
07FC0000
07FC0000
060E0000
06060000
06060000
06060000
06060000
060E0000
1FFC0000
1FF80000
00000000
00000000
0007F800
000FFC00
001C0E00
00180600
00000600
00000600
00000600
00000E00
0001FC00
0001FC00
00000E00
00000600
00000600
00000600
00180600
001C0E00
000FFC00
0007F800
00000000
00000000
00000000
00000000
00000000
00000000
00000000
ENDCHAR

STARTCHAR isoB4
ENCODING 180
SWIDTH 480 0
DWIDTH 25 0
BBX 25 50 0 -6
BITMAP
00000000
00000000
00000000
00000000
00000000
1FF80000
1FFC0000
060E0000
06060000
06060000
06060000
06060000
060E0000
07FC0000
07FC0000
060E0000
06060000
06060000
06060000
06060000
060E0000
1FFC0000
1FF80000
00000000
00000000
00006000
0000E000
0001E000
0003E000
00076000
000E6000
001C6000
00386000
00706000
00606000
00606000
00606000
007FF800
007FF800
00006000
00006000
00006000
00006000
00000000
00000000
00000000
00000000
00000000
00000000
00000000
ENDCHAR

STARTCHAR isoB5
ENCODING 181
SWIDTH 480 0
DWIDTH 25 0
BBX 25 50 0 -6
BITMAP
00000000
00000000
00000000
00000000
00000000
1FF80000
1FFC0000
060E0000
06060000
06060000
06060000
06060000
060E0000
07FC0000
07FC0000
060E0000
06060000
06060000
06060000
06060000
060E0000
1FFC0000
1FF80000
00000000
00000000
001FFE00
001FFE00
00180000
00180000
00180000
00180000
00180000
00180000
001FF800
001FFC00
00000E00
00000600
00000600
00000600
00180600
001C0E00
000FFC00
0007F800
00000000
00000000
00000000
00000000
00000000
00000000
00000000
ENDCHAR

STARTCHAR isoB6
ENCODING 182
SWIDTH 480 0
DWIDTH 25 0
BBX 25 50 0 -6
BITMAP
00000000
00000000
00000000
00000000
00000000
1FF80000
1FFC0000
060E0000
06060000
06060000
06060000
06060000
060E0000
07FC0000
07FC0000
060E0000
06060000
06060000
06060000
06060000
060E0000
1FFC0000
1FF80000
00000000
00000000
0007F800
000FFC00
001C0E00
00180600
00180000
00180000
00180000
00180000
001FF800
001FFC00
00180E00
00180600
00180600
00180600
00180600
001C0E00
000FFC00
0007F800
00000000
00000000
00000000
00000000
00000000
00000000
00000000
ENDCHAR

STARTCHAR isoB7
ENCODING 183
SWIDTH 480 0
DWIDTH 25 0
BBX 25 50 0 -6
BITMAP
00000000
00000000
00000000
00000000
00000000
1FF80000
1FFC0000
060E0000
06060000
06060000
06060000
06060000
060E0000
07FC0000
07FC0000
060E0000
06060000
06060000
06060000
06060000
060E0000
1FFC0000
1FF80000
00000000
00000000
001FFE00
001FFE00
00000600
00000600
00000C00
00000C00
00001800
00003800
00007000
00006000
0000C000
0000C000
00018000
00018000
00018000
00018000
00018000
00018000
00000000
00000000
00000000
00000000
00000000
00000000
00000000
ENDCHAR

STARTCHAR isoB8
ENCODING 184
SWIDTH 480 0
DWIDTH 25 0
BBX 25 50 0 -6
BITMAP
00000000
00000000
00000000
00000000
00000000
1FF80000
1FFC0000
060E0000
06060000
06060000
06060000
06060000
060E0000
07FC0000
07FC0000
060E0000
06060000
06060000
06060000
06060000
060E0000
1FFC0000
1FF80000
00000000
00000000
0007F800
000FFC00
001C0E00
00180600
00180600
00180600
00180600
001C0E00
000FFC00
000FFC00
001C0E00
00180600
00180600
00180600
00180600
001C0E00
000FFC00
0007F800
00000000
00000000
00000000
00000000
00000000
00000000
00000000
ENDCHAR

STARTCHAR isoB9
ENCODING 185
SWIDTH 480 0
DWIDTH 25 0
BBX 25 50 0 -6
BITMAP
00000000
00000000
00000000
00000000
00000000
1FF80000
1FFC0000
060E0000
06060000
06060000
06060000
06060000
060E0000
07FC0000
07FC0000
060E0000
06060000
06060000
06060000
06060000
060E0000
1FFC0000
1FF80000
00000000
00000000
0007F800
000FFC00
001C0E00
00180600
00180600
00180600
00180600
001C0600
000FFE00
0007FE00
00000600
00000600
00000600
00000600
00180600
001C0E00
000FFC00
0007F800
00000000
00000000
00000000
00000000
00000000
00000000
00000000
ENDCHAR

STARTCHAR isoBA
ENCODING 186
SWIDTH 480 0
DWIDTH 25 0
BBX 25 50 0 -6
BITMAP
00000000
00000000
00000000
00000000
00000000
1FF80000
1FFC0000
060E0000
06060000
06060000
06060000
06060000
060E0000
07FC0000
07FC0000
060E0000
06060000
06060000
06060000
06060000
060E0000
1FFC0000
1FF80000
00000000
00000000
0001E000
0001E000
00033000
00033000
00061800
00061800
000C0C00
000C0C00
00180600
00180600
001FFE00
001FFE00
00180600
00180600
00180600
00180600
00180600
00180600
00000000
00000000
00000000
00000000
00000000
00000000
00000000
ENDCHAR

STARTCHAR isoBB
ENCODING 187
SWIDTH 480 0
DWIDTH 25 0
BBX 25 50 0 -6
BITMAP
00000000
00000000
00000000
00000000
00000000
1FF80000
1FFC0000
060E0000
06060000
06060000
06060000
06060000
060E0000
07FC0000
07FC0000
060E0000
06060000
06060000
06060000
06060000
060E0000
1FFC0000
1FF80000
00000000
00000000
001FF800
001FFC00
00060E00
00060600
00060600
00060600
00060600
00060E00
0007FC00
0007FC00
00060E00
00060600
00060600
00060600
00060600
00060E00
001FFC00
001FF800
00000000
00000000
00000000
00000000
00000000
00000000
00000000
ENDCHAR

STARTCHAR isoBC
ENCODING 188
SWIDTH 480 0
DWIDTH 25 0
BBX 25 50 0 -6
BITMAP
00000000
00000000
00000000
00000000
00000000
1FF80000
1FFC0000
060E0000
06060000
06060000
06060000
06060000
060E0000
07FC0000
07FC0000
060E0000
06060000
06060000
06060000
06060000
060E0000
1FFC0000
1FF80000
00000000
00000000
0007F800
000FFC00
001C0E00
00180600
00180600
00180600
00180000
00180000
00180000
00180000
00180000
00180000
00180000
00180000
00180600
001C0E00
000FFC00
0007F800
00000000
00000000
00000000
00000000
00000000
00000000
00000000
ENDCHAR

STARTCHAR isoBD
ENCODING 189
SWIDTH 480 0
DWIDTH 25 0
BBX 25 50 0 -6
BITMAP
00000000
00000000
00000000
00000000
00000000
1FF80000
1FFC0000
060E0000
06060000
06060000
06060000
06060000
060E0000
07FC0000
07FC0000
060E0000
06060000
06060000
06060000
06060000
060E0000
1FFC0000
1FF80000
00000000
00000000
001FE000
001FF000
00183800
00181C00
00180E00
00180600
00180600
00180600
00180600
00180600
00180600
00180600
00180600
00180E00
00181C00
00183800
001FF000
001FE000
00000000
00000000
00000000
00000000
00000000
00000000
00000000
ENDCHAR

STARTCHAR isoBE
ENCODING 190
SWIDTH 480 0
DWIDTH 25 0
BBX 25 50 0 -6
BITMAP
00000000
00000000
00000000
00000000
00000000
1FF80000
1FFC0000
060E0000
06060000
06060000
06060000
06060000
060E0000
07FC0000
07FC0000
060E0000
06060000
06060000
06060000
06060000
060E0000
1FFC0000
1FF80000
00000000
00000000
001FFE00
001FFE00
00180000
00180000
00180000
00180000
00180000
00180000
001FF800
001FF800
00180000
00180000
00180000
00180000
00180000
00180000
001FFE00
001FFE00
00000000
00000000
00000000
00000000
00000000
00000000
00000000
ENDCHAR

STARTCHAR isoBF
ENCODING 191
SWIDTH 480 0
DWIDTH 25 0
BBX 25 50 0 -6
BITMAP
00000000
00000000
00000000
00000000
00000000
1FF80000
1FFC0000
060E0000
06060000
06060000
06060000
06060000
060E0000
07FC0000
07FC0000
060E0000
06060000
06060000
06060000
06060000
060E0000
1FFC0000
1FF80000
00000000
00000000
001FFE00
001FFE00
00180000
00180000
00180000
00180000
00180000
00180000
001FF800
001FF800
00180000
00180000
00180000
00180000
00180000
00180000
00180000
00180000
00000000
00000000
00000000
00000000
00000000
00000000
00000000
ENDCHAR

STARTCHAR isoC0
ENCODING 192
SWIDTH 480 0
DWIDTH 25 0
BBX 25 50 0 -6
BITMAP
00000000
00000000
00000000
00000000
00000000
07F80000
0FFC0000
1C0E0000
18060000
18060000
18060000
18000000
18000000
18000000
18000000
18000000
18000000
18000000
18000000
18060000
1C0E0000
0FFC0000
07F80000
00000000
00000000
0007F800
000FFC00
001C0E00
00180600
00180600
00180600
00180600
00180600
00180600
00180600
00180600
00180600
00180600
00180600
00180600
001C0E00
000FFC00
0007F800
00000000
00000000
00000000
00000000
00000000
00000000
00000000
ENDCHAR

STARTCHAR isoC1
ENCODING 193
SWIDTH 480 0
DWIDTH 25 0
BBX 25 50 0 -6
BITMAP
00000000
00000000
00000000
00000000
00000000
07F80000
0FFC0000
1C0E0000
18060000
18060000
18060000
18000000
18000000
18000000
18000000
18000000
18000000
18000000
18000000
18060000
1C0E0000
0FFC0000
07F80000
00000000
00000000
00006000
0000E000
0001E000
0003E000
00076000
00066000
00006000
00006000
00006000
00006000
00006000
00006000
00006000
00006000
00006000
00006000
0007FE00
0007FE00
00000000
00000000
00000000
00000000
00000000
00000000
00000000
ENDCHAR

STARTCHAR isoC2
ENCODING 194
SWIDTH 480 0
DWIDTH 25 0
BBX 25 50 0 -6
BITMAP
00000000
00000000
00000000
00000000
00000000
07F80000
0FFC0000
1C0E0000
18060000
18060000
18060000
18000000
18000000
18000000
18000000
18000000
18000000
18000000
18000000
18060000
1C0E0000
0FFC0000
07F80000
00000000
00000000
0007F800
000FFC00
001C0E00
00180600
00180600
00180E00
00001C00
00003800
00007000
0000E000
0001C000
00038000
00070000
000E0000
001C0000
00180000
001FFE00
001FFE00
00000000
00000000
00000000
00000000
00000000
00000000
00000000
ENDCHAR

STARTCHAR isoC3
ENCODING 195
SWIDTH 480 0
DWIDTH 25 0
BBX 25 50 0 -6
BITMAP
00000000
00000000
00000000
00000000
00000000
07F80000
0FFC0000
1C0E0000
18060000
18060000
18060000
18000000
18000000
18000000
18000000
18000000
18000000
18000000
18000000
18060000
1C0E0000
0FFC0000
07F80000
00000000
00000000
0007F800
000FFC00
001C0E00
00180600
00000600
00000600
00000600
00000E00
0001FC00
0001FC00
00000E00
00000600
00000600
00000600
00180600
001C0E00
000FFC00
0007F800
00000000
00000000
00000000
00000000
00000000
00000000
00000000
ENDCHAR

STARTCHAR isoC4
ENCODING 196
SWIDTH 480 0
DWIDTH 25 0
BBX 25 50 0 -6
BITMAP
00000000
00000000
00000000
00000000
00000000
07F80000
0FFC0000
1C0E0000
18060000
18060000
18060000
18000000
18000000
18000000
18000000
18000000
18000000
18000000
18000000
18060000
1C0E0000
0FFC0000
07F80000
00000000
00000000
00006000
0000E000
0001E000
0003E000
00076000
000E6000
001C6000
00386000
00706000
00606000
00606000
00606000
007FF800
007FF800
00006000
00006000
00006000
00006000
00000000
00000000
00000000
00000000
00000000
00000000
00000000
ENDCHAR

STARTCHAR isoC5
ENCODING 197
SWIDTH 480 0
DWIDTH 25 0
BBX 25 50 0 -6
BITMAP
00000000
00000000
00000000
00000000
00000000
07F80000
0FFC0000
1C0E0000
18060000
18060000
18060000
18000000
18000000
18000000
18000000
18000000
18000000
18000000
18000000
18060000
1C0E0000
0FFC0000
07F80000
00000000
00000000
001FFE00
001FFE00
00180000
00180000
00180000
00180000
00180000
00180000
001FF800
001FFC00
00000E00
00000600
00000600
00000600
00180600
001C0E00
000FFC00
0007F800
00000000
00000000
00000000
00000000
00000000
00000000
00000000
ENDCHAR

STARTCHAR isoC6
ENCODING 198
SWIDTH 480 0
DWIDTH 25 0
BBX 25 50 0 -6
BITMAP
00000000
00000000
00000000
00000000
00000000
07F80000
0FFC0000
1C0E0000
18060000
18060000
18060000
18000000
18000000
18000000
18000000
18000000
18000000
18000000
18000000
18060000
1C0E0000
0FFC0000
07F80000
00000000
00000000
0007F800
000FFC00
001C0E00
00180600
00180000
00180000
00180000
00180000
001FF800
001FFC00
00180E00
00180600
00180600
00180600
00180600
001C0E00
000FFC00
0007F800
00000000
00000000
00000000
00000000
00000000
00000000
00000000
ENDCHAR

STARTCHAR isoC7
ENCODING 199
SWIDTH 480 0
DWIDTH 25 0
BBX 25 50 0 -6
BITMAP
00000000
00000000
00000000
00000000
00000000
07F80000
0FFC0000
1C0E0000
18060000
18060000
18060000
18000000
18000000
18000000
18000000
18000000
18000000
18000000
18000000
18060000
1C0E0000
0FFC0000
07F80000
00000000
00000000
001FFE00
001FFE00
00000600
00000600
00000C00
00000C00
00001800
00003800
00007000
00006000
0000C000
0000C000
00018000
00018000
00018000
00018000
00018000
00018000
00000000
00000000
00000000
00000000
00000000
00000000
00000000
ENDCHAR

STARTCHAR isoC8
ENCODING 200
SWIDTH 480 0
DWIDTH 25 0
BBX 25 50 0 -6
BITMAP
00000000
00000000
00000000
00000000
00000000
07F80000
0FFC0000
1C0E0000
18060000
18060000
18060000
18000000
18000000
18000000
18000000
18000000
18000000
18000000
18000000
18060000
1C0E0000
0FFC0000
07F80000
00000000
00000000
0007F800
000FFC00
001C0E00
00180600
00180600
00180600
00180600
001C0E00
000FFC00
000FFC00
001C0E00
00180600
00180600
00180600
00180600
001C0E00
000FFC00
0007F800
00000000
00000000
00000000
00000000
00000000
00000000
00000000
ENDCHAR

STARTCHAR isoC9
ENCODING 201
SWIDTH 480 0
DWIDTH 25 0
BBX 25 50 0 -6
BITMAP
00000000
00000000
00000000
00000000
00000000
07F80000
0FFC0000
1C0E0000
18060000
18060000
18060000
18000000
18000000
18000000
18000000
18000000
18000000
18000000
18000000
18060000
1C0E0000
0FFC0000
07F80000
00000000
00000000
0007F800
000FFC00
001C0E00
00180600
00180600
00180600
00180600
001C0600
000FFE00
0007FE00
00000600
00000600
00000600
00000600
00180600
001C0E00
000FFC00
0007F800
00000000
00000000
00000000
00000000
00000000
00000000
00000000
ENDCHAR

STARTCHAR isoCA
ENCODING 202
SWIDTH 480 0
DWIDTH 25 0
BBX 25 50 0 -6
BITMAP
00000000
00000000
00000000
00000000
00000000
07F80000
0FFC0000
1C0E0000
18060000
18060000
18060000
18000000
18000000
18000000
18000000
18000000
18000000
18000000
18000000
18060000
1C0E0000
0FFC0000
07F80000
00000000
00000000
0001E000
0001E000
00033000
00033000
00061800
00061800
000C0C00
000C0C00
00180600
00180600
001FFE00
001FFE00
00180600
00180600
00180600
00180600
00180600
00180600
00000000
00000000
00000000
00000000
00000000
00000000
00000000
ENDCHAR

STARTCHAR isoCB
ENCODING 203
SWIDTH 480 0
DWIDTH 25 0
BBX 25 50 0 -6
BITMAP
00000000
00000000
00000000
00000000
00000000
07F80000
0FFC0000
1C0E0000
18060000
18060000
18060000
18000000
18000000
18000000
18000000
18000000
18000000
18000000
18000000
18060000
1C0E0000
0FFC0000
07F80000
00000000
00000000
001FF800
001FFC00
00060E00
00060600
00060600
00060600
00060600
00060E00
0007FC00
0007FC00
00060E00
00060600
00060600
00060600
00060600
00060E00
001FFC00
001FF800
00000000
00000000
00000000
00000000
00000000
00000000
00000000
ENDCHAR

STARTCHAR isoCC
ENCODING 204
SWIDTH 480 0
DWIDTH 25 0
BBX 25 50 0 -6
BITMAP
00000000
00000000
00000000
00000000
00000000
07F80000
0FFC0000
1C0E0000
18060000
18060000
18060000
18000000
18000000
18000000
18000000
18000000
18000000
18000000
18000000
18060000
1C0E0000
0FFC0000
07F80000
00000000
00000000
0007F800
000FFC00
001C0E00
00180600
00180600
00180600
00180000
00180000
00180000
00180000
00180000
00180000
00180000
00180000
00180600
001C0E00
000FFC00
0007F800
00000000
00000000
00000000
00000000
00000000
00000000
00000000
ENDCHAR

STARTCHAR isoCD
ENCODING 205
SWIDTH 480 0
DWIDTH 25 0
BBX 25 50 0 -6
BITMAP
00000000
00000000
00000000
00000000
00000000
07F80000
0FFC0000
1C0E0000
18060000
18060000
18060000
18000000
18000000
18000000
18000000
18000000
18000000
18000000
18000000
18060000
1C0E0000
0FFC0000
07F80000
00000000
00000000
001FE000
001FF000
00183800
00181C00
00180E00
00180600
00180600
00180600
00180600
00180600
00180600
00180600
00180600
00180E00
00181C00
00183800
001FF000
001FE000
00000000
00000000
00000000
00000000
00000000
00000000
00000000
ENDCHAR

STARTCHAR isoCE
ENCODING 206
SWIDTH 480 0
DWIDTH 25 0
BBX 25 50 0 -6
BITMAP
00000000
00000000
00000000
00000000
00000000
07F80000
0FFC0000
1C0E0000
18060000
18060000
18060000
18000000
18000000
18000000
18000000
18000000
18000000
18000000
18000000
18060000
1C0E0000
0FFC0000
07F80000
00000000
00000000
001FFE00
001FFE00
00180000
00180000
00180000
00180000
00180000
00180000
001FF800
001FF800
00180000
00180000
00180000
00180000
00180000
00180000
001FFE00
001FFE00
00000000
00000000
00000000
00000000
00000000
00000000
00000000
ENDCHAR

STARTCHAR isoCF
ENCODING 207
SWIDTH 480 0
DWIDTH 25 0
BBX 25 50 0 -6
BITMAP
00000000
00000000
00000000
00000000
00000000
07F80000
0FFC0000
1C0E0000
18060000
18060000
18060000
18000000
18000000
18000000
18000000
18000000
18000000
18000000
18000000
18060000
1C0E0000
0FFC0000
07F80000
00000000
00000000
001FFE00
001FFE00
00180000
00180000
00180000
00180000
00180000
00180000
001FF800
001FF800
00180000
00180000
00180000
00180000
00180000
00180000
00180000
00180000
00000000
00000000
00000000
00000000
00000000
00000000
00000000
ENDCHAR

STARTCHAR isoD0
ENCODING 208
SWIDTH 480 0
DWIDTH 25 0
BBX 25 50 0 -6
BITMAP
00000000
00000000
00000000
00000000
00000000
1FE00000
1FF00000
18380000
181C0000
180E0000
18060000
18060000
18060000
18060000
18060000
18060000
18060000
18060000
180E0000
181C0000
18380000
1FF00000
1FE00000
00000000
00000000
0007F800
000FFC00
001C0E00
00180600
00180600
00180600
00180600
00180600
00180600
00180600
00180600
00180600
00180600
00180600
00180600
001C0E00
000FFC00
0007F800
00000000
00000000
00000000
00000000
00000000
00000000
00000000
ENDCHAR

STARTCHAR isoD1
ENCODING 209
SWIDTH 480 0
DWIDTH 25 0
BBX 25 50 0 -6
BITMAP
00000000
00000000
00000000
00000000
00000000
1FE00000
1FF00000
18380000
181C0000
180E0000
18060000
18060000
18060000
18060000
18060000
18060000
18060000
18060000
180E0000
181C0000
18380000
1FF00000
1FE00000
00000000
00000000
00006000
0000E000
0001E000
0003E000
00076000
00066000
00006000
00006000
00006000
00006000
00006000
00006000
00006000
00006000
00006000
00006000
0007FE00
0007FE00
00000000
00000000
00000000
00000000
00000000
00000000
00000000
ENDCHAR

STARTCHAR isoD2
ENCODING 210
SWIDTH 480 0
DWIDTH 25 0
BBX 25 50 0 -6
BITMAP
00000000
00000000
00000000
00000000
00000000
1FE00000
1FF00000
18380000
181C0000
180E0000
18060000
18060000
18060000
18060000
18060000
18060000
18060000
18060000
180E0000
181C0000
18380000
1FF00000
1FE00000
00000000
00000000
0007F800
000FFC00
001C0E00
00180600
00180600
00180E00
00001C00
00003800
00007000
0000E000
0001C000
00038000
00070000
000E0000
001C0000
00180000
001FFE00
001FFE00
00000000
00000000
00000000
00000000
00000000
00000000
00000000
ENDCHAR

STARTCHAR isoD3
ENCODING 211
SWIDTH 480 0
DWIDTH 25 0
BBX 25 50 0 -6
BITMAP
00000000
00000000
00000000
00000000
00000000
1FE00000
1FF00000
18380000
181C0000
180E0000
18060000
18060000
18060000
18060000
18060000
18060000
18060000
18060000
180E0000
181C0000
18380000
1FF00000
1FE00000
00000000
00000000
0007F800
000FFC00
001C0E00
00180600
00000600
00000600
00000600
00000E00
0001FC00
0001FC00
00000E00
00000600
00000600
00000600
00180600
001C0E00
000FFC00
0007F800
00000000
00000000
00000000
00000000
00000000
00000000
00000000
ENDCHAR

STARTCHAR isoD4
ENCODING 212
SWIDTH 480 0
DWIDTH 25 0
BBX 25 50 0 -6
BITMAP
00000000
00000000
00000000
00000000
00000000
1FE00000
1FF00000
18380000
181C0000
180E0000
18060000
18060000
18060000
18060000
18060000
18060000
18060000
18060000
180E0000
181C0000
18380000
1FF00000
1FE00000
00000000
00000000
00006000
0000E000
0001E000
0003E000
00076000
000E6000
001C6000
00386000
00706000
00606000
00606000
00606000
007FF800
007FF800
00006000
00006000
00006000
00006000
00000000
00000000
00000000
00000000
00000000
00000000
00000000
ENDCHAR

STARTCHAR isoD5
ENCODING 213
SWIDTH 480 0
DWIDTH 25 0
BBX 25 50 0 -6
BITMAP
00000000
00000000
00000000
00000000
00000000
1FE00000
1FF00000
18380000
181C0000
180E0000
18060000
18060000
18060000
18060000
18060000
18060000
18060000
18060000
180E0000
181C0000
18380000
1FF00000
1FE00000
00000000
00000000
001FFE00
001FFE00
00180000
00180000
00180000
00180000
00180000
00180000
001FF800
001FFC00
00000E00
00000600
00000600
00000600
00180600
001C0E00
000FFC00
0007F800
00000000
00000000
00000000
00000000
00000000
00000000
00000000
ENDCHAR

STARTCHAR isoD6
ENCODING 214
SWIDTH 480 0
DWIDTH 25 0
BBX 25 50 0 -6
BITMAP
00000000
00000000
00000000
00000000
00000000
1FE00000
1FF00000
18380000
181C0000
180E0000
18060000
18060000
18060000
18060000
18060000
18060000
18060000
18060000
180E0000
181C0000
18380000
1FF00000
1FE00000
00000000
00000000
0007F800
000FFC00
001C0E00
00180600
00180000
00180000
00180000
00180000
001FF800
001FFC00
00180E00
00180600
00180600
00180600
00180600
001C0E00
000FFC00
0007F800
00000000
00000000
00000000
00000000
00000000
00000000
00000000
ENDCHAR

STARTCHAR isoD7
ENCODING 215
SWIDTH 480 0
DWIDTH 25 0
BBX 25 50 0 -6
BITMAP
00000000
00000000
00000000
00000000
00000000
1FE00000
1FF00000
18380000
181C0000
180E0000
18060000
18060000
18060000
18060000
18060000
18060000
18060000
18060000
180E0000
181C0000
18380000
1FF00000
1FE00000
00000000
00000000
001FFE00
001FFE00
00000600
00000600
00000C00
00000C00
00001800
00003800
00007000
00006000
0000C000
0000C000
00018000
00018000
00018000
00018000
00018000
00018000
00000000
00000000
00000000
00000000
00000000
00000000
00000000
ENDCHAR

STARTCHAR isoD8
ENCODING 216
SWIDTH 480 0
DWIDTH 25 0
BBX 25 50 0 -6
BITMAP
00000000
00000000
00000000
00000000
00000000
1FE00000
1FF00000
18380000
181C0000
180E0000
18060000
18060000
18060000
18060000
18060000
18060000
18060000
18060000
180E0000
181C0000
18380000
1FF00000
1FE00000
00000000
00000000
0007F800
000FFC00
001C0E00
00180600
00180600
00180600
00180600
001C0E00
000FFC00
000FFC00
001C0E00
00180600
00180600
00180600
00180600
001C0E00
000FFC00
0007F800
00000000
00000000
00000000
00000000
00000000
00000000
00000000
ENDCHAR

STARTCHAR isoD9
ENCODING 217
SWIDTH 480 0
DWIDTH 25 0
BBX 25 50 0 -6
BITMAP
00000000
00000000
00000000
00000000
00000000
1FE00000
1FF00000
18380000
181C0000
180E0000
18060000
18060000
18060000
18060000
18060000
18060000
18060000
18060000
180E0000
181C0000
18380000
1FF00000
1FE00000
00000000
00000000
0007F800
000FFC00
001C0E00
00180600
00180600
00180600
00180600
001C0600
000FFE00
0007FE00
00000600
00000600
00000600
00000600
00180600
001C0E00
000FFC00
0007F800
00000000
00000000
00000000
00000000
00000000
00000000
00000000
ENDCHAR

STARTCHAR isoDA
ENCODING 218
SWIDTH 480 0
DWIDTH 25 0
BBX 25 50 0 -6
BITMAP
00000000
00000000
00000000
00000000
00000000
1FE00000
1FF00000
18380000
181C0000
180E0000
18060000
18060000
18060000
18060000
18060000
18060000
18060000
18060000
180E0000
181C0000
18380000
1FF00000
1FE00000
00000000
00000000
0001E000
0001E000
00033000
00033000
00061800
00061800
000C0C00
000C0C00
00180600
00180600
001FFE00
001FFE00
00180600
00180600
00180600
00180600
00180600
00180600
00000000
00000000
00000000
00000000
00000000
00000000
00000000
ENDCHAR

STARTCHAR isoDB
ENCODING 219
SWIDTH 480 0
DWIDTH 25 0
BBX 25 50 0 -6
BITMAP
00000000
00000000
00000000
00000000
00000000
1FE00000
1FF00000
18380000
181C0000
180E0000
18060000
18060000
18060000
18060000
18060000
18060000
18060000
18060000
180E0000
181C0000
18380000
1FF00000
1FE00000
00000000
00000000
001FF800
001FFC00
00060E00
00060600
00060600
00060600
00060600
00060E00
0007FC00
0007FC00
00060E00
00060600
00060600
00060600
00060600
00060E00
001FFC00
001FF800
00000000
00000000
00000000
00000000
00000000
00000000
00000000
ENDCHAR

STARTCHAR isoDC
ENCODING 220
SWIDTH 480 0
DWIDTH 25 0
BBX 25 50 0 -6
BITMAP
00000000
00000000
00000000
00000000
00000000
1FE00000
1FF00000
18380000
181C0000
180E0000
18060000
18060000
18060000
18060000
18060000
18060000
18060000
18060000
180E0000
181C0000
18380000
1FF00000
1FE00000
00000000
00000000
0007F800
000FFC00
001C0E00
00180600
00180600
00180600
00180000
00180000
00180000
00180000
00180000
00180000
00180000
00180000
00180600
001C0E00
000FFC00
0007F800
00000000
00000000
00000000
00000000
00000000
00000000
00000000
ENDCHAR

STARTCHAR isoDD
ENCODING 221
SWIDTH 480 0
DWIDTH 25 0
BBX 25 50 0 -6
BITMAP
00000000
00000000
00000000
00000000
00000000
1FE00000
1FF00000
18380000
181C0000
180E0000
18060000
18060000
18060000
18060000
18060000
18060000
18060000
18060000
180E0000
181C0000
18380000
1FF00000
1FE00000
00000000
00000000
001FE000
001FF000
00183800
00181C00
00180E00
00180600
00180600
00180600
00180600
00180600
00180600
00180600
00180600
00180E00
00181C00
00183800
001FF000
001FE000
00000000
00000000
00000000
00000000
00000000
00000000
00000000
ENDCHAR

STARTCHAR isoDE
ENCODING 222
SWIDTH 480 0
DWIDTH 25 0
BBX 25 50 0 -6
BITMAP
00000000
00000000
00000000
00000000
00000000
1FE00000
1FF00000
18380000
181C0000
180E0000
18060000
18060000
18060000
18060000
18060000
18060000
18060000
18060000
180E0000
181C0000
18380000
1FF00000
1FE00000
00000000
00000000
001FFE00
001FFE00
00180000
00180000
00180000
00180000
00180000
00180000
001FF800
001FF800
00180000
00180000
00180000
00180000
00180000
00180000
001FFE00
001FFE00
00000000
00000000
00000000
00000000
00000000
00000000
00000000
ENDCHAR

STARTCHAR isoDF
ENCODING 223
SWIDTH 480 0
DWIDTH 25 0
BBX 25 50 0 -6
BITMAP
00000000
00000000
00000000
00000000
00000000
1FE00000
1FF00000
18380000
181C0000
180E0000
18060000
18060000
18060000
18060000
18060000
18060000
18060000
18060000
180E0000
181C0000
18380000
1FF00000
1FE00000
00000000
00000000
001FFE00
001FFE00
00180000
00180000
00180000
00180000
00180000
00180000
001FF800
001FF800
00180000
00180000
00180000
00180000
00180000
00180000
00180000
00180000
00000000
00000000
00000000
00000000
00000000
00000000
00000000
ENDCHAR

STARTCHAR isoE0
ENCODING 224
SWIDTH 480 0
DWIDTH 25 0
BBX 25 50 0 -6
BITMAP
00000000
00000000
00000000
00000000
00000000
1FFE0000
1FFE0000
18000000
18000000
18000000
18000000
18000000
18000000
1FF80000
1FF80000
18000000
18000000
18000000
18000000
18000000
18000000
1FFE0000
1FFE0000
00000000
00000000
0007F800
000FFC00
001C0E00
00180600
00180600
00180600
00180600
00180600
00180600
00180600
00180600
00180600
00180600
00180600
00180600
001C0E00
000FFC00
0007F800
00000000
00000000
00000000
00000000
00000000
00000000
00000000
ENDCHAR

STARTCHAR isoE1
ENCODING 225
SWIDTH 480 0
DWIDTH 25 0
BBX 25 50 0 -6
BITMAP
00000000
00000000
00000000
00000000
00000000
1FFE0000
1FFE0000
18000000
18000000
18000000
18000000
18000000
18000000
1FF80000
1FF80000
18000000
18000000
18000000
18000000
18000000
18000000
1FFE0000
1FFE0000
00000000
00000000
00006000
0000E000
0001E000
0003E000
00076000
00066000
00006000
00006000
00006000
00006000
00006000
00006000
00006000
00006000
00006000
00006000
0007FE00
0007FE00
00000000
00000000
00000000
00000000
00000000
00000000
00000000
ENDCHAR

STARTCHAR isoE2
ENCODING 226
SWIDTH 480 0
DWIDTH 25 0
BBX 25 50 0 -6
BITMAP
00000000
00000000
00000000
00000000
00000000
1FFE0000
1FFE0000
18000000
18000000
18000000
18000000
18000000
18000000
1FF80000
1FF80000
18000000
18000000
18000000
18000000
18000000
18000000
1FFE0000
1FFE0000
00000000
00000000
0007F800
000FFC00
001C0E00
00180600
00180600
00180E00
00001C00
00003800
00007000
0000E000
0001C000
00038000
00070000
000E0000
001C0000
00180000
001FFE00
001FFE00
00000000
00000000
00000000
00000000
00000000
00000000
00000000
ENDCHAR

STARTCHAR isoE3
ENCODING 227
SWIDTH 480 0
DWIDTH 25 0
BBX 25 50 0 -6
BITMAP
00000000
00000000
00000000
00000000
00000000
1FFE0000
1FFE0000
18000000
18000000
18000000
18000000
18000000
18000000
1FF80000
1FF80000
18000000
18000000
18000000
18000000
18000000
18000000
1FFE0000
1FFE0000
00000000
00000000
0007F800
000FFC00
001C0E00
00180600
00000600
00000600
00000600
00000E00
0001FC00
0001FC00
00000E00
00000600
00000600
00000600
00180600
001C0E00
000FFC00
0007F800
00000000
00000000
00000000
00000000
00000000
00000000
00000000
ENDCHAR

STARTCHAR isoE4
ENCODING 228
SWIDTH 480 0
DWIDTH 25 0
BBX 25 50 0 -6
BITMAP
00000000
00000000
00000000
00000000
00000000
1FFE0000
1FFE0000
18000000
18000000
18000000
18000000
18000000
18000000
1FF80000
1FF80000
18000000
18000000
18000000
18000000
18000000
18000000
1FFE0000
1FFE0000
00000000
00000000
00006000
0000E000
0001E000
0003E000
00076000
000E6000
001C6000
00386000
00706000
00606000
00606000
00606000
007FF800
007FF800
00006000
00006000
00006000
00006000
00000000
00000000
00000000
00000000
00000000
00000000
00000000
ENDCHAR

STARTCHAR isoE5
ENCODING 229
SWIDTH 480 0
DWIDTH 25 0
BBX 25 50 0 -6
BITMAP
00000000
00000000
00000000
00000000
00000000
1FFE0000
1FFE0000
18000000
18000000
18000000
18000000
18000000
18000000
1FF80000
1FF80000
18000000
18000000
18000000
18000000
18000000
18000000
1FFE0000
1FFE0000
00000000
00000000
001FFE00
001FFE00
00180000
00180000
00180000
00180000
00180000
00180000
001FF800
001FFC00
00000E00
00000600
00000600
00000600
00180600
001C0E00
000FFC00
0007F800
00000000
00000000
00000000
00000000
00000000
00000000
00000000
ENDCHAR

STARTCHAR isoE6
ENCODING 230
SWIDTH 480 0
DWIDTH 25 0
BBX 25 50 0 -6
BITMAP
00000000
00000000
00000000
00000000
00000000
1FFE0000
1FFE0000
18000000
18000000
18000000
18000000
18000000
18000000
1FF80000
1FF80000
18000000
18000000
18000000
18000000
18000000
18000000
1FFE0000
1FFE0000
00000000
00000000
0007F800
000FFC00
001C0E00
00180600
00180000
00180000
00180000
00180000
001FF800
001FFC00
00180E00
00180600
00180600
00180600
00180600
001C0E00
000FFC00
0007F800
00000000
00000000
00000000
00000000
00000000
00000000
00000000
ENDCHAR

STARTCHAR isoE7
ENCODING 231
SWIDTH 480 0
DWIDTH 25 0
BBX 25 50 0 -6
BITMAP
00000000
00000000
00000000
00000000
00000000
1FFE0000
1FFE0000
18000000
18000000
18000000
18000000
18000000
18000000
1FF80000
1FF80000
18000000
18000000
18000000
18000000
18000000
18000000
1FFE0000
1FFE0000
00000000
00000000
001FFE00
001FFE00
00000600
00000600
00000C00
00000C00
00001800
00003800
00007000
00006000
0000C000
0000C000
00018000
00018000
00018000
00018000
00018000
00018000
00000000
00000000
00000000
00000000
00000000
00000000
00000000
ENDCHAR

STARTCHAR isoE8
ENCODING 232
SWIDTH 480 0
DWIDTH 25 0
BBX 25 50 0 -6
BITMAP
00000000
00000000
00000000
00000000
00000000
1FFE0000
1FFE0000
18000000
18000000
18000000
18000000
18000000
18000000
1FF80000
1FF80000
18000000
18000000
18000000
18000000
18000000
18000000
1FFE0000
1FFE0000
00000000
00000000
0007F800
000FFC00
001C0E00
00180600
00180600
00180600
00180600
001C0E00
000FFC00
000FFC00
001C0E00
00180600
00180600
00180600
00180600
001C0E00
000FFC00
0007F800
00000000
00000000
00000000
00000000
00000000
00000000
00000000
ENDCHAR

STARTCHAR isoE9
ENCODING 233
SWIDTH 480 0
DWIDTH 25 0
BBX 25 50 0 -6
BITMAP
00000000
00000000
00000000
00000000
00000000
1FFE0000
1FFE0000
18000000
18000000
18000000
18000000
18000000
18000000
1FF80000
1FF80000
18000000
18000000
18000000
18000000
18000000
18000000
1FFE0000
1FFE0000
00000000
00000000
0007F800
000FFC00
001C0E00
00180600
00180600
00180600
00180600
001C0600
000FFE00
0007FE00
00000600
00000600
00000600
00000600
00180600
001C0E00
000FFC00
0007F800
00000000
00000000
00000000
00000000
00000000
00000000
00000000
ENDCHAR

STARTCHAR isoEA
ENCODING 234
SWIDTH 480 0
DWIDTH 25 0
BBX 25 50 0 -6
BITMAP
00000000
00000000
00000000
00000000
00000000
1FFE0000
1FFE0000
18000000
18000000
18000000
18000000
18000000
18000000
1FF80000
1FF80000
18000000
18000000
18000000
18000000
18000000
18000000
1FFE0000
1FFE0000
00000000
00000000
0001E000
0001E000
00033000
00033000
00061800
00061800
000C0C00
000C0C00
00180600
00180600
001FFE00
001FFE00
00180600
00180600
00180600
00180600
00180600
00180600
00000000
00000000
00000000
00000000
00000000
00000000
00000000
ENDCHAR

STARTCHAR isoEB
ENCODING 235
SWIDTH 480 0
DWIDTH 25 0
BBX 25 50 0 -6
BITMAP
00000000
00000000
00000000
00000000
00000000
1FFE0000
1FFE0000
18000000
18000000
18000000
18000000
18000000
18000000
1FF80000
1FF80000
18000000
18000000
18000000
18000000
18000000
18000000
1FFE0000
1FFE0000
00000000
00000000
001FF800
001FFC00
00060E00
00060600
00060600
00060600
00060600
00060E00
0007FC00
0007FC00
00060E00
00060600
00060600
00060600
00060600
00060E00
001FFC00
001FF800
00000000
00000000
00000000
00000000
00000000
00000000
00000000
ENDCHAR

STARTCHAR isoEC
ENCODING 236
SWIDTH 480 0
DWIDTH 25 0
BBX 25 50 0 -6
BITMAP
00000000
00000000
00000000
00000000
00000000
1FFE0000
1FFE0000
18000000
18000000
18000000
18000000
18000000
18000000
1FF80000
1FF80000
18000000
18000000
18000000
18000000
18000000
18000000
1FFE0000
1FFE0000
00000000
00000000
0007F800
000FFC00
001C0E00
00180600
00180600
00180600
00180000
00180000
00180000
00180000
00180000
00180000
00180000
00180000
00180600
001C0E00
000FFC00
0007F800
00000000
00000000
00000000
00000000
00000000
00000000
00000000
ENDCHAR

STARTCHAR isoED
ENCODING 237
SWIDTH 480 0
DWIDTH 25 0
BBX 25 50 0 -6
BITMAP
00000000
00000000
00000000
00000000
00000000
1FFE0000
1FFE0000
18000000
18000000
18000000
18000000
18000000
18000000
1FF80000
1FF80000
18000000
18000000
18000000
18000000
18000000
18000000
1FFE0000
1FFE0000
00000000
00000000
001FE000
001FF000
00183800
00181C00
00180E00
00180600
00180600
00180600
00180600
00180600
00180600
00180600
00180600
00180E00
00181C00
00183800
001FF000
001FE000
00000000
00000000
00000000
00000000
00000000
00000000
00000000
ENDCHAR

STARTCHAR isoEE
ENCODING 238
SWIDTH 480 0
DWIDTH 25 0
BBX 25 50 0 -6
BITMAP
00000000
00000000
00000000
00000000
00000000
1FFE0000
1FFE0000
18000000
18000000
18000000
18000000
18000000
18000000
1FF80000
1FF80000
18000000
18000000
18000000
18000000
18000000
18000000
1FFE0000
1FFE0000
00000000
00000000
001FFE00
001FFE00
00180000
00180000
00180000
00180000
00180000
00180000
001FF800
001FF800
00180000
00180000
00180000
00180000
00180000
00180000
001FFE00
001FFE00
00000000
00000000
00000000
00000000
00000000
00000000
00000000
ENDCHAR

STARTCHAR isoEF
ENCODING 239
SWIDTH 480 0
DWIDTH 25 0
BBX 25 50 0 -6
BITMAP
00000000
00000000
00000000
00000000
00000000
1FFE0000
1FFE0000
18000000
18000000
18000000
18000000
18000000
18000000
1FF80000
1FF80000
18000000
18000000
18000000
18000000
18000000
18000000
1FFE0000
1FFE0000
00000000
00000000
001FFE00
001FFE00
00180000
00180000
00180000
00180000
00180000
00180000
001FF800
001FF800
00180000
00180000
00180000
00180000
00180000
00180000
00180000
00180000
00000000
00000000
00000000
00000000
00000000
00000000
00000000
ENDCHAR

STARTCHAR isoF0
ENCODING 240
SWIDTH 480 0
DWIDTH 25 0
BBX 25 50 0 -6
BITMAP
00000000
00000000
00000000
00000000
00000000
1FFE0000
1FFE0000
18000000
18000000
18000000
18000000
18000000
18000000
1FF80000
1FF80000
18000000
18000000
18000000
18000000
18000000
18000000
18000000
18000000
00000000
00000000
0007F800
000FFC00
001C0E00
00180600
00180600
00180600
00180600
00180600
00180600
00180600
00180600
00180600
00180600
00180600
00180600
001C0E00
000FFC00
0007F800
00000000
00000000
00000000
00000000
00000000
00000000
00000000
ENDCHAR

STARTCHAR isoF1
ENCODING 241
SWIDTH 480 0
DWIDTH 25 0
BBX 25 50 0 -6
BITMAP
00000000
00000000
00000000
00000000
00000000
1FFE0000
1FFE0000
18000000
18000000
18000000
18000000
18000000
18000000
1FF80000
1FF80000
18000000
18000000
18000000
18000000
18000000
18000000
18000000
18000000
00000000
00000000
00006000
0000E000
0001E000
0003E000
00076000
00066000
00006000
00006000
00006000
00006000
00006000
00006000
00006000
00006000
00006000
00006000
0007FE00
0007FE00
00000000
00000000
00000000
00000000
00000000
00000000
00000000
ENDCHAR

STARTCHAR isoF2
ENCODING 242
SWIDTH 480 0
DWIDTH 25 0
BBX 25 50 0 -6
BITMAP
00000000
00000000
00000000
00000000
00000000
1FFE0000
1FFE0000
18000000
18000000
18000000
18000000
18000000
18000000
1FF80000
1FF80000
18000000
18000000
18000000
18000000
18000000
18000000
18000000
18000000
00000000
00000000
0007F800
000FFC00
001C0E00
00180600
00180600
00180E00
00001C00
00003800
00007000
0000E000
0001C000
00038000
00070000
000E0000
001C0000
00180000
001FFE00
001FFE00
00000000
00000000
00000000
00000000
00000000
00000000
00000000
ENDCHAR

STARTCHAR isoF3
ENCODING 243
SWIDTH 480 0
DWIDTH 25 0
BBX 25 50 0 -6
BITMAP
00000000
00000000
00000000
00000000
00000000
1FFE0000
1FFE0000
18000000
18000000
18000000
18000000
18000000
18000000
1FF80000
1FF80000
18000000
18000000
18000000
18000000
18000000
18000000
18000000
18000000
00000000
00000000
0007F800
000FFC00
001C0E00
00180600
00000600
00000600
00000600
00000E00
0001FC00
0001FC00
00000E00
00000600
00000600
00000600
00180600
001C0E00
000FFC00
0007F800
00000000
00000000
00000000
00000000
00000000
00000000
00000000
ENDCHAR

STARTCHAR isoF4
ENCODING 244
SWIDTH 480 0
DWIDTH 25 0
BBX 25 50 0 -6
BITMAP
00000000
00000000
00000000
00000000
00000000
1FFE0000
1FFE0000
18000000
18000000
18000000
18000000
18000000
18000000
1FF80000
1FF80000
18000000
18000000
18000000
18000000
18000000
18000000
18000000
18000000
00000000
00000000
00006000
0000E000
0001E000
0003E000
00076000
000E6000
001C6000
00386000
00706000
00606000
00606000
00606000
007FF800
007FF800
00006000
00006000
00006000
00006000
00000000
00000000
00000000
00000000
00000000
00000000
00000000
ENDCHAR

STARTCHAR isoF5
ENCODING 245
SWIDTH 480 0
DWIDTH 25 0
BBX 25 50 0 -6
BITMAP
00000000
00000000
00000000
00000000
00000000
1FFE0000
1FFE0000
18000000
18000000
18000000
18000000
18000000
18000000
1FF80000
1FF80000
18000000
18000000
18000000
18000000
18000000
18000000
18000000
18000000
00000000
00000000
001FFE00
001FFE00
00180000
00180000
00180000
00180000
00180000
00180000
001FF800
001FFC00
00000E00
00000600
00000600
00000600
00180600
001C0E00
000FFC00
0007F800
00000000
00000000
00000000
00000000
00000000
00000000
00000000
ENDCHAR

STARTCHAR isoF6
ENCODING 246
SWIDTH 480 0
DWIDTH 25 0
BBX 25 50 0 -6
BITMAP
00000000
00000000
00000000
00000000
00000000
1FFE0000
1FFE0000
18000000
18000000
18000000
18000000
18000000
18000000
1FF80000
1FF80000
18000000
18000000
18000000
18000000
18000000
18000000
18000000
18000000
00000000
00000000
0007F800
000FFC00
001C0E00
00180600
00180000
00180000
00180000
00180000
001FF800
001FFC00
00180E00
00180600
00180600
00180600
00180600
001C0E00
000FFC00
0007F800
00000000
00000000
00000000
00000000
00000000
00000000
00000000
ENDCHAR

STARTCHAR isoF7
ENCODING 247
SWIDTH 480 0
DWIDTH 25 0
BBX 25 50 0 -6
BITMAP
00000000
00000000
00000000
00000000
00000000
1FFE0000
1FFE0000
18000000
18000000
18000000
18000000
18000000
18000000
1FF80000
1FF80000
18000000
18000000
18000000
18000000
18000000
18000000
18000000
18000000
00000000
00000000
001FFE00
001FFE00
00000600
00000600
00000C00
00000C00
00001800
00003800
00007000
00006000
0000C000
0000C000
00018000
00018000
00018000
00018000
00018000
00018000
00000000
00000000
00000000
00000000
00000000
00000000
00000000
ENDCHAR

STARTCHAR isoF8
ENCODING 248
SWIDTH 480 0
DWIDTH 25 0
BBX 25 50 0 -6
BITMAP
00000000
00000000
00000000
00000000
00000000
1FFE0000
1FFE0000
18000000
18000000
18000000
18000000
18000000
18000000
1FF80000
1FF80000
18000000
18000000
18000000
18000000
18000000
18000000
18000000
18000000
00000000
00000000
0007F800
000FFC00
001C0E00
00180600
00180600
00180600
00180600
001C0E00
000FFC00
000FFC00
001C0E00
00180600
00180600
00180600
00180600
001C0E00
000FFC00
0007F800
00000000
00000000
00000000
00000000
00000000
00000000
00000000
ENDCHAR

STARTCHAR isoF9
ENCODING 249
SWIDTH 480 0
DWIDTH 25 0
BBX 25 50 0 -6
BITMAP
00000000
00000000
00000000
00000000
00000000
1FFE0000
1FFE0000
18000000
18000000
18000000
18000000
18000000
18000000
1FF80000
1FF80000
18000000
18000000
18000000
18000000
18000000
18000000
18000000
18000000
00000000
00000000
0007F800
000FFC00
001C0E00
00180600
00180600
00180600
00180600
001C0600
000FFE00
0007FE00
00000600
00000600
00000600
00000600
00180600
001C0E00
000FFC00
0007F800
00000000
00000000
00000000
00000000
00000000
00000000
00000000
ENDCHAR

STARTCHAR isoFA
ENCODING 250
SWIDTH 480 0
DWIDTH 25 0
BBX 25 50 0 -6
BITMAP
00000000
00000000
00000000
00000000
00000000
1FFE0000
1FFE0000
18000000
18000000
18000000
18000000
18000000
18000000
1FF80000
1FF80000
18000000
18000000
18000000
18000000
18000000
18000000
18000000
18000000
00000000
00000000
0001E000
0001E000
00033000
00033000
00061800
00061800
000C0C00
000C0C00
00180600
00180600
001FFE00
001FFE00
00180600
00180600
00180600
00180600
00180600
00180600
00000000
00000000
00000000
00000000
00000000
00000000
00000000
ENDCHAR

STARTCHAR isoFB
ENCODING 251
SWIDTH 480 0
DWIDTH 25 0
BBX 25 50 0 -6
BITMAP
00000000
00000000
00000000
00000000
00000000
1FFE0000
1FFE0000
18000000
18000000
18000000
18000000
18000000
18000000
1FF80000
1FF80000
18000000
18000000
18000000
18000000
18000000
18000000
18000000
18000000
00000000
00000000
001FF800
001FFC00
00060E00
00060600
00060600
00060600
00060600
00060E00
0007FC00
0007FC00
00060E00
00060600
00060600
00060600
00060600
00060E00
001FFC00
001FF800
00000000
00000000
00000000
00000000
00000000
00000000
00000000
ENDCHAR

STARTCHAR isoFC
ENCODING 252
SWIDTH 480 0
DWIDTH 25 0
BBX 25 50 0 -6
BITMAP
00000000
00000000
00000000
00000000
00000000
1FFE0000
1FFE0000
18000000
18000000
18000000
18000000
18000000
18000000
1FF80000
1FF80000
18000000
18000000
18000000
18000000
18000000
18000000
18000000
18000000
00000000
00000000
0007F800
000FFC00
001C0E00
00180600
00180600
00180600
00180000
00180000
00180000
00180000
00180000
00180000
00180000
00180000
00180600
001C0E00
000FFC00
0007F800
00000000
00000000
00000000
00000000
00000000
00000000
00000000
ENDCHAR

STARTCHAR isoFD
ENCODING 253
SWIDTH 480 0
DWIDTH 25 0
BBX 25 50 0 -6
BITMAP
00000000
00000000
00000000
00000000
00000000
1FFE0000
1FFE0000
18000000
18000000
18000000
18000000
18000000
18000000
1FF80000
1FF80000
18000000
18000000
18000000
18000000
18000000
18000000
18000000
18000000
00000000
00000000
001FE000
001FF000
00183800
00181C00
00180E00
00180600
00180600
00180600
00180600
00180600
00180600
00180600
00180600
00180E00
00181C00
00183800
001FF000
001FE000
00000000
00000000
00000000
00000000
00000000
00000000
00000000
ENDCHAR

STARTCHAR isoFE
ENCODING 254
SWIDTH 480 0
DWIDTH 25 0
BBX 25 50 0 -6
BITMAP
00000000
00000000
00000000
00000000
00000000
1FFE0000
1FFE0000
18000000
18000000
18000000
18000000
18000000
18000000
1FF80000
1FF80000
18000000
18000000
18000000
18000000
18000000
18000000
18000000
18000000
00000000
00000000
001FFE00
001FFE00
00180000
00180000
00180000
00180000
00180000
00180000
001FF800
001FF800
00180000
00180000
00180000
00180000
00180000
00180000
001FFE00
001FFE00
00000000
00000000
00000000
00000000
00000000
00000000
00000000
ENDCHAR

STARTCHAR isoFF
ENCODING 255
SWIDTH 480 0
DWIDTH 25 0
BBX 25 50 0 -6
BITMAP
00000000
00000000
00000000
00000000
00000000
1FFE0000
1FFE0000
18000000
18000000
18000000
18000000
18000000
18000000
1FF80000
1FF80000
18000000
18000000
18000000
18000000
18000000
18000000
18000000
18000000
00000000
00000000
007FF800
007FF800
00600000
00600000
00600000
00600000
00600000
00600000
007FE000
007FE000
00600000
00600000
00600000
00600000
00600000
00600000
00600000
00600000
00000000
00000000
00000000
00000000
00000000
00000000
00000000
ENDCHAR
ENDFONT
